<?xml version="1.0" encoding="us-ascii" standalone="no"?><svg xmlns="http://www.w3.org/2000/svg" xmlns:xlink="http://www.w3.org/1999/xlink" contentStyleType="text/css" height="252px" preserveAspectRatio="none" style="width:181px;height:252px;background:#FFFFFF;" version="1.1" viewBox="0 0 181 252" width="181px" zoomAndPan="magnify"><defs/><g><!--class CarPark--><g id="elem_CarPark"><rect codeLine="1" fill="#F1F1F1" height="97.4648" id="CarPark" rx="2.5" ry="2.5" style="stroke:#181818;stroke-width:0.5;" width="167" x="7" y="7"/><ellipse cx="59.25" cy="23" fill="#ADD1B2" rx="11" ry="11" style="stroke:#181818;stroke-width:1.0;"/><path d="M62.2231,28.6431 Q61.6421,28.9419 61.0029,29.0913 Q60.3638,29.2407 59.6582,29.2407 Q57.1514,29.2407 55.8315,27.5889 Q54.5117,25.937 54.5117,22.8159 Q54.5117,19.6865 55.8315,18.0347 Q57.1514,16.3828 59.6582,16.3828 Q60.3638,16.3828 61.0112,16.5322 Q61.6587,16.6816 62.2231,16.9805 L62.2231,19.7031 Q61.5923,19.1221 60.9988,18.8523 Q60.4053,18.5825 59.7744,18.5825 Q58.4297,18.5825 57.7449,19.6492 Q57.0601,20.7158 57.0601,22.8159 Q57.0601,24.9077 57.7449,25.9744 Q58.4297,27.041 59.7744,27.041 Q60.4053,27.041 60.9988,26.7712 Q61.5923,26.5015 62.2231,25.9204 Z " fill="#000000"/><text fill="#000000" font-family="sans-serif" font-size="14" lengthAdjust="spacing" textLength="54" x="79.75" y="28.291">CarPark</text><line style="stroke:#181818;stroke-width:0.5;" x1="8" x2="173" y1="39" y2="39"/><text fill="#000000" font-family="sans-serif" font-size="14" lengthAdjust="spacing" textLength="58" x="13" y="56.5352">String id</text><text fill="#000000" font-family="sans-serif" font-size="14" lengthAdjust="spacing" textLength="99" x="13" y="73.0234">String address</text><text fill="#000000" font-family="sans-serif" font-size="14" lengthAdjust="spacing" textLength="155" x="13" y="89.5117">Coordinate coordinate</text><line style="stroke:#181818;stroke-width:0.5;" x1="8" x2="173" y1="96.4648" y2="96.4648"/></g><!--class Coordinate--><g id="elem_Coordinate"><rect codeLine="7" fill="#F1F1F1" height="80.9766" id="Coordinate" rx="2.5" ry="2.5" style="stroke:#181818;stroke-width:0.5;" width="130" x="25.5" y="164.46"/><ellipse cx="49.95" cy="180.46" fill="#ADD1B2" rx="11" ry="11" style="stroke:#181818;stroke-width:1.0;"/><path d="M52.9231,186.1031 Q52.3421,186.4019 51.7029,186.5513 Q51.0638,186.7007 50.3582,186.7007 Q47.8514,186.7007 46.5315,185.0489 Q45.2117,183.397 45.2117,180.2759 Q45.2117,177.1465 46.5315,175.4947 Q47.8514,173.8428 50.3582,173.8428 Q51.0638,173.8428 51.7112,173.9922 Q52.3587,174.1416 52.9231,174.4405 L52.9231,177.1631 Q52.2923,176.5821 51.6988,176.3123 Q51.1053,176.0425 50.4744,176.0425 Q49.1297,176.0425 48.4449,177.1092 Q47.7601,178.1758 47.7601,180.2759 Q47.7601,182.3677 48.4449,183.4344 Q49.1297,184.501 50.4744,184.501 Q51.1053,184.501 51.6988,184.2312 Q52.2923,183.9615 52.9231,183.3804 Z " fill="#000000"/><text fill="#000000" font-family="sans-serif" font-size="14" lengthAdjust="spacing" textLength="77" x="66.05" y="185.751">Coordinate</text><line style="stroke:#181818;stroke-width:0.5;" x1="26.5" x2="154.5" y1="196.46" y2="196.46"/><text fill="#000000" font-family="sans-serif" font-size="14" lengthAdjust="spacing" textLength="118" x="31.5" y="213.9952">double longitude</text><text fill="#000000" font-family="sans-serif" font-size="14" lengthAdjust="spacing" textLength="104" x="31.5" y="230.4834">double latitude</text><line style="stroke:#181818;stroke-width:0.5;" x1="26.5" x2="154.5" y1="237.4366" y2="237.4366"/></g><!--link CarPark to Coordinate--><g id="link_CarPark_Coordinate"><path codeLine="12" d="M90.5,104.94 C90.5,124.06 90.5,133.78 90.5,152 " fill="none" id="CarPark-to-Coordinate" style="stroke:#181818;stroke-width:1.0;"/><polygon fill="#181818" points="90.5,164,94.5,158,90.5,152,86.5,158,90.5,164" style="stroke:#181818;stroke-width:1.0;"/></g><!--SRC=[Iyv9B2vMS4ui2aWiobQevb80Wk2IeioyT8NC56HUOafAKMfnCLZ8EJ-_A2KpBx4aLI4PpkIgvU9AXfY6a8OOc99VcfIJgf2JdvUUMLAQaeeYc5W24GDgXpb3LrSBoH00]--></g></svg>