<?xml version="1.0" encoding="us-ascii" standalone="no"?><svg xmlns="http://www.w3.org/2000/svg" xmlns:xlink="http://www.w3.org/1999/xlink" contentStyleType="text/css" height="725px" preserveAspectRatio="none" style="width:1653px;height:725px;background:#FFFFFF;" version="1.1" viewBox="0 0 1653 725" width="1653px" zoomAndPan="magnify"><defs/><g><!--cluster domain--><g id="cluster_domain"><rect fill="none" height="289.44" rx="2.5" ry="2.5" style="stroke:#181818;stroke-width:1.0;" width="198" x="7" y="7"/><path d="M71,7 L71,16.4883 L61,26.4883 L7,26.4883 " fill="none" style="stroke:#181818;stroke-width:1.0;"/><text fill="#000000" font-family="sans-serif" font-size="14" font-weight="bold" lengthAdjust="spacing" textLength="54" x="10" y="21.5352">domain</text></g><!--cluster data transfer object--><g id="cluster_data transfer object"><rect fill="none" height="99" rx="2.5" ry="2.5" style="stroke:#181818;stroke-width:1.0;" width="192" x="229" y="31.73"/><path d="M381,31.73 L381,41.2183 L371,51.2183 L229,51.2183 " fill="none" style="stroke:#181818;stroke-width:1.0;"/><text fill="#000000" font-family="sans-serif" font-size="14" font-weight="bold" lengthAdjust="spacing" textLength="142" x="232" y="46.2652">data transfer object</text></g><!--cluster system interaction--><g id="cluster_system interaction"><rect fill="none" height="695.88" rx="2.5" ry="2.5" style="stroke:#181818;stroke-width:1.0;" width="1202" x="445" y="23.49"/><path d="M590,23.49 L590,32.9783 L580,42.9783 L445,42.9783 " fill="none" style="stroke:#181818;stroke-width:1.0;"/><text fill="#000000" font-family="sans-serif" font-size="14" font-weight="bold" lengthAdjust="spacing" textLength="135" x="448" y="38.0252">system interaction</text></g><!--class CarPark--><g id="elem_CarPark"><rect codeLine="1" fill="#F1F1F1" height="97.4648" id="CarPark" rx="2.5" ry="2.5" style="stroke:#181818;stroke-width:0.5;" width="167" x="22.5" y="42"/><ellipse cx="74.75" cy="58" fill="#ADD1B2" rx="11" ry="11" style="stroke:#181818;stroke-width:1.0;"/><path d="M77.7231,63.6431 Q77.1421,63.9419 76.5029,64.0913 Q75.8638,64.2407 75.1582,64.2407 Q72.6514,64.2407 71.3315,62.5889 Q70.0117,60.937 70.0117,57.8159 Q70.0117,54.6865 71.3315,53.0347 Q72.6514,51.3828 75.1582,51.3828 Q75.8638,51.3828 76.5112,51.5322 Q77.1587,51.6816 77.7231,51.9805 L77.7231,54.7031 Q77.0923,54.1221 76.4988,53.8523 Q75.9053,53.5825 75.2744,53.5825 Q73.9297,53.5825 73.2449,54.6492 Q72.5601,55.7158 72.5601,57.8159 Q72.5601,59.9077 73.2449,60.9744 Q73.9297,62.041 75.2744,62.041 Q75.9053,62.041 76.4988,61.7712 Q77.0923,61.5015 77.7231,60.9204 Z " fill="#000000"/><text fill="#000000" font-family="sans-serif" font-size="14" lengthAdjust="spacing" textLength="54" x="95.25" y="63.291">CarPark</text><line style="stroke:#181818;stroke-width:0.5;" x1="23.5" x2="188.5" y1="74" y2="74"/><text fill="#000000" font-family="sans-serif" font-size="14" lengthAdjust="spacing" textLength="58" x="28.5" y="91.5352">String id</text><text fill="#000000" font-family="sans-serif" font-size="14" lengthAdjust="spacing" textLength="99" x="28.5" y="108.0234">String address</text><text fill="#000000" font-family="sans-serif" font-size="14" lengthAdjust="spacing" textLength="155" x="28.5" y="124.5117">Coordinate coordinate</text><line style="stroke:#181818;stroke-width:0.5;" x1="23.5" x2="188.5" y1="131.4648" y2="131.4648"/></g><!--class Coordinate--><g id="elem_Coordinate"><rect codeLine="7" fill="#F1F1F1" height="80.9766" id="Coordinate" rx="2.5" ry="2.5" style="stroke:#181818;stroke-width:0.5;" width="130" x="41" y="199.46"/><ellipse cx="65.45" cy="215.46" fill="#ADD1B2" rx="11" ry="11" style="stroke:#181818;stroke-width:1.0;"/><path d="M68.4231,221.1031 Q67.8421,221.4019 67.2029,221.5513 Q66.5638,221.7007 65.8582,221.7007 Q63.3514,221.7007 62.0315,220.0489 Q60.7117,218.397 60.7117,215.2759 Q60.7117,212.1465 62.0315,210.4947 Q63.3514,208.8428 65.8582,208.8428 Q66.5638,208.8428 67.2112,208.9922 Q67.8587,209.1416 68.4231,209.4405 L68.4231,212.1631 Q67.7923,211.5821 67.1988,211.3123 Q66.6053,211.0425 65.9744,211.0425 Q64.6297,211.0425 63.9449,212.1092 Q63.2601,213.1758 63.2601,215.2759 Q63.2601,217.3677 63.9449,218.4344 Q64.6297,219.501 65.9744,219.501 Q66.6053,219.501 67.1988,219.2312 Q67.7923,218.9615 68.4231,218.3804 Z " fill="#000000"/><text fill="#000000" font-family="sans-serif" font-size="14" lengthAdjust="spacing" textLength="77" x="81.55" y="220.751">Coordinate</text><line style="stroke:#181818;stroke-width:0.5;" x1="42" x2="170" y1="231.46" y2="231.46"/><text fill="#000000" font-family="sans-serif" font-size="14" lengthAdjust="spacing" textLength="118" x="47" y="248.9952">double longitude</text><text fill="#000000" font-family="sans-serif" font-size="14" lengthAdjust="spacing" textLength="104" x="47" y="265.4834">double latitude</text><line style="stroke:#181818;stroke-width:0.5;" x1="42" x2="170" y1="272.4366" y2="272.4366"/></g><!--class CarParkAvailability--><g id="elem_CarParkAvailability"><rect codeLine="8" fill="#F1F1F1" height="48" id="CarParkAvailability" rx="2.5" ry="2.5" style="stroke:#181818;stroke-width:0.5;" width="160" x="245" y="66.73"/><ellipse cx="260" cy="82.73" fill="#ADD1B2" rx="11" ry="11" style="stroke:#181818;stroke-width:1.0;"/><path d="M262.9731,88.3731 Q262.3921,88.6719 261.7529,88.8213 Q261.1138,88.9707 260.4082,88.9707 Q257.9014,88.9707 256.5815,87.3189 Q255.2617,85.667 255.2617,82.5459 Q255.2617,79.4165 256.5815,77.7647 Q257.9014,76.1128 260.4082,76.1128 Q261.1138,76.1128 261.7612,76.2622 Q262.4087,76.4116 262.9731,76.7105 L262.9731,79.4331 Q262.3423,78.8521 261.7488,78.5823 Q261.1553,78.3125 260.5244,78.3125 Q259.1797,78.3125 258.4949,79.3792 Q257.8101,80.4458 257.8101,82.5459 Q257.8101,84.6377 258.4949,85.7044 Q259.1797,86.771 260.5244,86.771 Q261.1553,86.771 261.7488,86.5012 Q262.3423,86.2315 262.9731,85.6504 Z " fill="#000000"/><text fill="#000000" font-family="sans-serif" font-size="14" lengthAdjust="spacing" textLength="128" x="274" y="88.021">CarParkAvailability</text><line style="stroke:#181818;stroke-width:0.5;" x1="246" x2="404" y1="98.73" y2="98.73"/><line style="stroke:#181818;stroke-width:0.5;" x1="246" x2="404" y1="106.73" y2="106.73"/></g><!--class CarParkController--><g id="elem_CarParkController"><rect codeLine="14" fill="#F1F1F1" height="64.4883" id="CarParkController" rx="2.5" ry="2.5" style="stroke:#181818;stroke-width:0.5;" width="434" x="1014" y="58.49"/><ellipse cx="1164.75" cy="74.49" fill="#ADD1B2" rx="11" ry="11" style="stroke:#181818;stroke-width:1.0;"/><path d="M1167.7231,80.1331 Q1167.1421,80.4319 1166.5029,80.5813 Q1165.8638,80.7307 1165.1582,80.7307 Q1162.6514,80.7307 1161.3315,79.0789 Q1160.0117,77.427 1160.0117,74.3059 Q1160.0117,71.1765 1161.3315,69.5247 Q1162.6514,67.8728 1165.1582,67.8728 Q1165.8638,67.8728 1166.5112,68.0222 Q1167.1587,68.1716 1167.7231,68.4705 L1167.7231,71.1931 Q1167.0923,70.6121 1166.4988,70.3423 Q1165.9053,70.0725 1165.2744,70.0725 Q1163.9297,70.0725 1163.2449,71.1392 Q1162.5601,72.2058 1162.5601,74.3059 Q1162.5601,76.3977 1163.2449,77.4644 Q1163.9297,78.531 1165.2744,78.531 Q1165.9053,78.531 1166.4988,78.2612 Q1167.0923,77.9915 1167.7231,77.4104 Z " fill="#000000"/><text fill="#000000" font-family="sans-serif" font-size="14" lengthAdjust="spacing" textLength="124" x="1185.25" y="79.781">CarParkController</text><line style="stroke:#181818;stroke-width:0.5;" x1="1015" x2="1447" y1="90.49" y2="90.49"/><line style="stroke:#181818;stroke-width:0.5;" x1="1015" x2="1447" y1="98.49" y2="98.49"/><ellipse cx="1025" cy="112.2341" fill="#84BE84" rx="3" ry="3" style="stroke:#038048;stroke-width:1.0;"/><text fill="#000000" font-family="sans-serif" font-size="14" lengthAdjust="spacing" textLength="408" x="1034" y="116.0252">List&lt;CarPark&gt; findNearestCarParks(Coordinate coordinate)</text></g><!--class CarParkService--><g id="elem_CarParkService"><rect codeLine="18" fill="#F1F1F1" height="80.9766" id="CarParkService" rx="2.5" ry="2.5" style="stroke:#181818;stroke-width:0.5;" width="434" x="836" y="199.46"/><ellipse cx="997.75" cy="215.46" fill="#B4A7E5" rx="11" ry="11" style="stroke:#181818;stroke-width:1.0;"/><path d="M993.6777,211.2251 L993.6777,209.0669 L1001.0571,209.0669 L1001.0571,211.2251 L998.5918,211.2251 L998.5918,219.3018 L1001.0571,219.3018 L1001.0571,221.46 L993.6777,221.46 L993.6777,219.3018 L996.1431,219.3018 L996.1431,211.2251 Z " fill="#000000"/><text fill="#000000" font-family="sans-serif" font-size="14" font-style="italic" lengthAdjust="spacing" textLength="102" x="1018.25" y="220.751">CarParkService</text><line style="stroke:#181818;stroke-width:0.5;" x1="837" x2="1269" y1="231.46" y2="231.46"/><line style="stroke:#181818;stroke-width:0.5;" x1="837" x2="1269" y1="239.46" y2="239.46"/><ellipse cx="847" cy="253.2041" fill="#84BE84" rx="3" ry="3" style="stroke:#038048;stroke-width:1.0;"/><text fill="#000000" font-family="sans-serif" font-size="14" lengthAdjust="spacing" textLength="408" x="856" y="256.9952">List&lt;CarPark&gt; findNearestCarParks(Coordinate coordinate)</text><ellipse cx="847" cy="269.6924" fill="#84BE84" rx="3" ry="3" style="stroke:#038048;stroke-width:1.0;"/><text fill="#000000" font-family="sans-serif" font-size="14" lengthAdjust="spacing" textLength="320" x="856" y="273.4834">List&lt;CarPark&gt; saveCarParks(CarPark carParks)</text></g><!--class DefaultCarParkService--><g id="elem_DefaultCarParkService"><rect codeLine="23" fill="#F1F1F1" height="80.9766" id="DefaultCarParkService" rx="2.5" ry="2.5" style="stroke:#181818;stroke-width:0.5;" width="434" x="836" y="340.44"/><ellipse cx="973.25" cy="356.44" fill="#ADD1B2" rx="11" ry="11" style="stroke:#181818;stroke-width:1.0;"/><path d="M976.2231,362.0831 Q975.6421,362.3819 975.0029,362.5313 Q974.3638,362.6807 973.6582,362.6807 Q971.1514,362.6807 969.8315,361.0289 Q968.5117,359.377 968.5117,356.2559 Q968.5117,353.1265 969.8315,351.4747 Q971.1514,349.8228 973.6582,349.8228 Q974.3638,349.8228 975.0112,349.9722 Q975.6587,350.1216 976.2231,350.4205 L976.2231,353.1431 Q975.5923,352.5621 974.9988,352.2923 Q974.4053,352.0225 973.7744,352.0225 Q972.4297,352.0225 971.7449,353.0892 Q971.0601,354.1558 971.0601,356.2559 Q971.0601,358.3477 971.7449,359.4144 Q972.4297,360.481 973.7744,360.481 Q974.4053,360.481 974.9988,360.2112 Q975.5923,359.9415 976.2231,359.3604 Z " fill="#000000"/><text fill="#000000" font-family="sans-serif" font-size="14" lengthAdjust="spacing" textLength="151" x="993.75" y="361.731">DefaultCarParkService</text><line style="stroke:#181818;stroke-width:0.5;" x1="837" x2="1269" y1="372.44" y2="372.44"/><line style="stroke:#181818;stroke-width:0.5;" x1="837" x2="1269" y1="380.44" y2="380.44"/><ellipse cx="847" cy="394.1841" fill="#84BE84" rx="3" ry="3" style="stroke:#038048;stroke-width:1.0;"/><text fill="#000000" font-family="sans-serif" font-size="14" lengthAdjust="spacing" textLength="408" x="856" y="397.9752">List&lt;CarPark&gt; findNearestCarParks(Coordinate coordinate)</text><ellipse cx="847" cy="410.6724" fill="#84BE84" rx="3" ry="3" style="stroke:#038048;stroke-width:1.0;"/><text fill="#000000" font-family="sans-serif" font-size="14" lengthAdjust="spacing" textLength="320" x="856" y="414.4634">List&lt;CarPark&gt; saveCarParks(CarPark carParks)</text></g><!--class CarParkRepository--><g id="elem_CarParkRepository"><rect codeLine="28" fill="#F1F1F1" height="80.9766" id="CarParkRepository" rx="2.5" ry="2.5" style="stroke:#181818;stroke-width:0.5;" width="348" x="461" y="481.42"/><ellipse cx="567.25" cy="497.42" fill="#B4A7E5" rx="11" ry="11" style="stroke:#181818;stroke-width:1.0;"/><path d="M563.1777,493.1851 L563.1777,491.0269 L570.5571,491.0269 L570.5571,493.1851 L568.0918,493.1851 L568.0918,501.2618 L570.5571,501.2618 L570.5571,503.42 L563.1777,503.42 L563.1777,501.2618 L565.6431,501.2618 L565.6431,493.1851 Z " fill="#000000"/><text fill="#000000" font-family="sans-serif" font-size="14" font-style="italic" lengthAdjust="spacing" textLength="127" x="587.75" y="502.711">CarParkRepository</text><line style="stroke:#181818;stroke-width:0.5;" x1="462" x2="808" y1="513.42" y2="513.42"/><line style="stroke:#181818;stroke-width:0.5;" x1="462" x2="808" y1="521.42" y2="521.42"/><ellipse cx="472" cy="535.1641" fill="#84BE84" rx="3" ry="3" style="stroke:#038048;stroke-width:1.0;"/><text fill="#000000" font-family="sans-serif" font-size="14" lengthAdjust="spacing" textLength="285" x="481" y="538.9552">List&lt;CarPark&gt; findByIds(List&lt;String&gt; ids)</text><ellipse cx="472" cy="551.6524" fill="#84BE84" rx="3" ry="3" style="stroke:#038048;stroke-width:1.0;"/><text fill="#000000" font-family="sans-serif" font-size="14" lengthAdjust="spacing" textLength="322" x="481" y="555.4434">List&lt;CarPark&gt; saveAll(List&lt;CarPark&gt; carParks)</text></g><!--class SpringJpaCarParkRepository--><g id="elem_SpringJpaCarParkRepository"><rect codeLine="33" fill="#F1F1F1" height="80.9766" id="SpringJpaCarParkRepository" rx="2.5" ry="2.5" style="stroke:#181818;stroke-width:0.5;" width="348" x="461" y="622.39"/><ellipse cx="534.25" cy="638.39" fill="#ADD1B2" rx="11" ry="11" style="stroke:#181818;stroke-width:1.0;"/><path d="M537.2231,644.0331 Q536.6421,644.3319 536.0029,644.4813 Q535.3638,644.6307 534.6582,644.6307 Q532.1514,644.6307 530.8315,642.9789 Q529.5117,641.327 529.5117,638.2059 Q529.5117,635.0765 530.8315,633.4247 Q532.1514,631.7728 534.6582,631.7728 Q535.3638,631.7728 536.0112,631.9222 Q536.6587,632.0716 537.2231,632.3705 L537.2231,635.0931 Q536.5923,634.5121 535.9988,634.2423 Q535.4053,633.9725 534.7744,633.9725 Q533.4297,633.9725 532.7449,635.0392 Q532.0601,636.1058 532.0601,638.2059 Q532.0601,640.2977 532.7449,641.3644 Q533.4297,642.431 534.7744,642.431 Q535.4053,642.431 535.9988,642.1612 Q536.5923,641.8915 537.2231,641.3104 Z " fill="#000000"/><text fill="#000000" font-family="sans-serif" font-size="14" lengthAdjust="spacing" textLength="193" x="554.75" y="643.681">SpringJpaCarParkRepository</text><line style="stroke:#181818;stroke-width:0.5;" x1="462" x2="808" y1="654.39" y2="654.39"/><line style="stroke:#181818;stroke-width:0.5;" x1="462" x2="808" y1="662.39" y2="662.39"/><ellipse cx="472" cy="676.1341" fill="#84BE84" rx="3" ry="3" style="stroke:#038048;stroke-width:1.0;"/><text fill="#000000" font-family="sans-serif" font-size="14" lengthAdjust="spacing" textLength="285" x="481" y="679.9252">List&lt;CarPark&gt; findByIds(List&lt;String&gt; ids)</text><ellipse cx="472" cy="692.6224" fill="#84BE84" rx="3" ry="3" style="stroke:#038048;stroke-width:1.0;"/><text fill="#000000" font-family="sans-serif" font-size="14" lengthAdjust="spacing" textLength="322" x="481" y="696.4134">List&lt;CarPark&gt; saveAll(List&lt;CarPark&gt; carParks)</text></g><!--class DistanceComputer--><g id="elem_DistanceComputer"><rect codeLine="38" fill="#F1F1F1" height="64.4883" id="DistanceComputer" rx="2.5" ry="2.5" style="stroke:#181818;stroke-width:0.5;" width="417" x="844.5" y="489.66"/><ellipse cx="985.25" cy="505.66" fill="#B4A7E5" rx="11" ry="11" style="stroke:#181818;stroke-width:1.0;"/><path d="M981.1777,501.4251 L981.1777,499.2669 L988.5571,499.2669 L988.5571,501.4251 L986.0918,501.4251 L986.0918,509.5018 L988.5571,509.5018 L988.5571,511.66 L981.1777,511.66 L981.1777,509.5018 L983.6431,509.5018 L983.6431,501.4251 Z " fill="#000000"/><text fill="#000000" font-family="sans-serif" font-size="14" font-style="italic" lengthAdjust="spacing" textLength="127" x="1005.75" y="510.951">DistanceComputer</text><line style="stroke:#181818;stroke-width:0.5;" x1="845.5" x2="1260.5" y1="521.66" y2="521.66"/><line style="stroke:#181818;stroke-width:0.5;" x1="845.5" x2="1260.5" y1="529.66" y2="529.66"/><ellipse cx="855.5" cy="543.4041" fill="#84BE84" rx="3" ry="3" style="stroke:#038048;stroke-width:1.0;"/><text fill="#000000" font-family="sans-serif" font-size="14" lengthAdjust="spacing" textLength="391" x="864.5" y="547.1952">double computeInMeter(Coordinate from, Coordinate to)</text></g><!--class LiquibaseCarParkMigrator--><g id="elem_LiquibaseCarParkMigrator"><rect codeLine="42" fill="#F1F1F1" height="64.4883" id="LiquibaseCarParkMigrator" rx="2.5" ry="2.5" style="stroke:#181818;stroke-width:0.5;" width="210" x="769" y="58.49"/><ellipse cx="784" cy="74.49" fill="#ADD1B2" rx="11" ry="11" style="stroke:#181818;stroke-width:1.0;"/><path d="M786.9731,80.1331 Q786.3921,80.4319 785.7529,80.5813 Q785.1138,80.7307 784.4082,80.7307 Q781.9014,80.7307 780.5815,79.0789 Q779.2617,77.427 779.2617,74.3059 Q779.2617,71.1765 780.5815,69.5247 Q781.9014,67.8728 784.4082,67.8728 Q785.1138,67.8728 785.7612,68.0222 Q786.4087,68.1716 786.9731,68.4705 L786.9731,71.1931 Q786.3423,70.6121 785.7488,70.3423 Q785.1553,70.0725 784.5244,70.0725 Q783.1797,70.0725 782.4949,71.1392 Q781.8101,72.2058 781.8101,74.3059 Q781.8101,76.3977 782.4949,77.4644 Q783.1797,78.531 784.5244,78.531 Q785.1553,78.531 785.7488,78.2612 Q786.3423,77.9915 786.9731,77.4104 Z " fill="#000000"/><text fill="#000000" font-family="sans-serif" font-size="14" lengthAdjust="spacing" textLength="178" x="798" y="79.781">LiquibaseCarParkMigrator</text><line style="stroke:#181818;stroke-width:0.5;" x1="770" x2="978" y1="90.49" y2="90.49"/><line style="stroke:#181818;stroke-width:0.5;" x1="770" x2="978" y1="98.49" y2="98.49"/><ellipse cx="780" cy="112.2341" fill="#84BE84" rx="3" ry="3" style="stroke:#038048;stroke-width:1.0;"/><text fill="#000000" font-family="sans-serif" font-size="14" lengthAdjust="spacing" textLength="96" x="789" y="116.0252">void migrate()</text></g><!--class CarParkAvailabilityClient--><g id="elem_CarParkAvailabilityClient"><rect codeLine="46" fill="#F1F1F1" height="64.4883" id="CarParkAvailabilityClient" rx="2.5" ry="2.5" style="stroke:#181818;stroke-width:0.5;" width="334" x="1297" y="489.66"/><ellipse cx="1375.75" cy="505.66" fill="#B4A7E5" rx="11" ry="11" style="stroke:#181818;stroke-width:1.0;"/><path d="M1371.6777,501.4251 L1371.6777,499.2669 L1379.0571,499.2669 L1379.0571,501.4251 L1376.5918,501.4251 L1376.5918,509.5018 L1379.0571,509.5018 L1379.0571,511.66 L1371.6777,511.66 L1371.6777,509.5018 L1374.1431,509.5018 L1374.1431,501.4251 Z " fill="#000000"/><text fill="#000000" font-family="sans-serif" font-size="14" font-style="italic" lengthAdjust="spacing" textLength="168" x="1396.25" y="510.951">CarParkAvailabilityClient</text><line style="stroke:#181818;stroke-width:0.5;" x1="1298" x2="1630" y1="521.66" y2="521.66"/><line style="stroke:#181818;stroke-width:0.5;" x1="1298" x2="1630" y1="529.66" y2="529.66"/><ellipse cx="1308" cy="543.4041" fill="#84BE84" rx="3" ry="3" style="stroke:#038048;stroke-width:1.0;"/><text fill="#000000" font-family="sans-serif" font-size="14" lengthAdjust="spacing" textLength="308" x="1317" y="547.1952">CarParkAvailability fetchAvailabilityCarPark();</text></g><!--class SingaporeCarParkAvailabilityClient--><g id="elem_SingaporeCarParkAvailabilityClient"><rect codeLine="50" fill="#F1F1F1" height="64.4883" id="SingaporeCarParkAvailabilityClient" rx="2.5" ry="2.5" style="stroke:#181818;stroke-width:0.5;" width="334" x="1297" y="630.64"/><ellipse cx="1340.8" cy="646.64" fill="#ADD1B2" rx="11" ry="11" style="stroke:#181818;stroke-width:1.0;"/><path d="M1343.7731,652.2831 Q1343.1921,652.5819 1342.5529,652.7313 Q1341.9138,652.8807 1341.2082,652.8807 Q1338.7014,652.8807 1337.3815,651.2289 Q1336.0617,649.577 1336.0617,646.4559 Q1336.0617,643.3265 1337.3815,641.6747 Q1338.7014,640.0228 1341.2082,640.0228 Q1341.9138,640.0228 1342.5612,640.1722 Q1343.2087,640.3216 1343.7731,640.6205 L1343.7731,643.3431 Q1343.1423,642.7621 1342.5488,642.4923 Q1341.9553,642.2225 1341.3244,642.2225 Q1339.9797,642.2225 1339.2949,643.2892 Q1338.6101,644.3558 1338.6101,646.4559 Q1338.6101,648.5477 1339.2949,649.6144 Q1339.9797,650.681 1341.3244,650.681 Q1341.9553,650.681 1342.5488,650.4112 Q1343.1423,650.1415 1343.7731,649.5604 Z " fill="#000000"/><text fill="#000000" font-family="sans-serif" font-size="14" lengthAdjust="spacing" textLength="238" x="1361.2" y="651.931">SingaporeCarParkAvailabilityClient</text><line style="stroke:#181818;stroke-width:0.5;" x1="1298" x2="1630" y1="662.64" y2="662.64"/><line style="stroke:#181818;stroke-width:0.5;" x1="1298" x2="1630" y1="670.64" y2="670.64"/><ellipse cx="1308" cy="684.3841" fill="#84BE84" rx="3" ry="3" style="stroke:#038048;stroke-width:1.0;"/><text fill="#000000" font-family="sans-serif" font-size="14" lengthAdjust="spacing" textLength="308" x="1317" y="688.1752">CarParkAvailability fetchAvailabilityCarPark();</text></g><!--class EquirectangularDistanceComputer--><g id="elem_EquirectangularDistanceComputer"><rect codeLine="54" fill="#F1F1F1" height="64.4883" id="EquirectangularDistanceComputer" rx="2.5" ry="2.5" style="stroke:#181818;stroke-width:0.5;" width="417" x="844.5" y="630.64"/><ellipse cx="930.75" cy="646.64" fill="#ADD1B2" rx="11" ry="11" style="stroke:#181818;stroke-width:1.0;"/><path d="M933.7231,652.2831 Q933.1421,652.5819 932.5029,652.7313 Q931.8638,652.8807 931.1582,652.8807 Q928.6514,652.8807 927.3315,651.2289 Q926.0117,649.577 926.0117,646.4559 Q926.0117,643.3265 927.3315,641.6747 Q928.6514,640.0228 931.1582,640.0228 Q931.8638,640.0228 932.5112,640.1722 Q933.1587,640.3216 933.7231,640.6205 L933.7231,643.3431 Q933.0923,642.7621 932.4988,642.4923 Q931.9053,642.2225 931.2744,642.2225 Q929.9297,642.2225 929.2449,643.2892 Q928.5601,644.3558 928.5601,646.4559 Q928.5601,648.5477 929.2449,649.6144 Q929.9297,650.681 931.2744,650.681 Q931.9053,650.681 932.4988,650.4112 Q933.0923,650.1415 933.7231,649.5604 Z " fill="#000000"/><text fill="#000000" font-family="sans-serif" font-size="14" lengthAdjust="spacing" textLength="236" x="951.25" y="651.931">EquirectangularDistanceComputer</text><line style="stroke:#181818;stroke-width:0.5;" x1="845.5" x2="1260.5" y1="662.64" y2="662.64"/><line style="stroke:#181818;stroke-width:0.5;" x1="845.5" x2="1260.5" y1="670.64" y2="670.64"/><ellipse cx="855.5" cy="684.3841" fill="#84BE84" rx="3" ry="3" style="stroke:#038048;stroke-width:1.0;"/><text fill="#000000" font-family="sans-serif" font-size="14" lengthAdjust="spacing" textLength="391" x="864.5" y="688.1752">double computeInMeter(Coordinate from, Coordinate to)</text></g><!--link CarPark to Coordinate--><g id="link_CarPark_Coordinate"><path codeLine="12" d="M106,139.94 C106,159.06 106,168.78 106,187 " fill="none" id="CarPark-to-Coordinate" style="stroke:#181818;stroke-width:1.0;"/><polygon fill="#181818" points="106,199,110,193,106,187,102,193,106,199" style="stroke:#181818;stroke-width:1.0;"/></g><!--link CarParkController to CarParkService--><g id="link_CarParkController_CarParkService"><path codeLine="60" d="M1192.81,123.31 C1166.05,145.45 1139.3165,167.5614 1110.5565,191.3514 " fill="none" id="CarParkController-to-CarParkService" style="stroke:#181818;stroke-width:1.0;"/><polygon fill="#181818" points="1101.31,199,1108.4828,198.2579,1110.5565,191.3514,1103.3837,192.0935,1101.31,199" style="stroke:#181818;stroke-width:1.0;"/></g><!--reverse link CarParkService to DefaultCarParkService--><g id="link_CarParkService_DefaultCarParkService"><path codeLine="61" d="M1053,298.78 C1053,317.39 1053,321.49 1053,340.1 " fill="none" id="CarParkService-backto-DefaultCarParkService" style="stroke:#181818;stroke-width:1.0;"/><polygon fill="none" points="1053,280.78,1047,298.78,1059,298.78,1053,280.78" style="stroke:#181818;stroke-width:1.0;"/></g><!--link LiquibaseCarParkMigrator to CarParkService--><g id="link_LiquibaseCarParkMigrator_CarParkService"><path codeLine="62" d="M912.4,123.31 C939.31,145.45 966.2327,167.5866 995.1527,191.3766 " fill="none" id="LiquibaseCarParkMigrator-to-CarParkService" style="stroke:#181818;stroke-width:1.0;"/><polygon fill="#181818" points="1004.42,199,1002.3275,192.0992,995.1527,191.3766,997.2452,198.2774,1004.42,199" style="stroke:#181818;stroke-width:1.0;"/></g><!--link DefaultCarParkService to CarParkRepository--><g id="link_DefaultCarParkService_CarParkRepository"><path codeLine="63" d="M932.94,421.85 C877.1,440.41 822.2273,458.6544 766.3973,477.2144 " fill="none" id="DefaultCarParkService-to-CarParkRepository" style="stroke:#181818;stroke-width:1.0;"/><polygon fill="#181818" points="755.01,481,761.9655,482.903,766.3973,477.2144,759.4418,475.3115,755.01,481" style="stroke:#181818;stroke-width:1.0;"/></g><!--link DefaultCarParkService to CarParkAvailabilityClient--><g id="link_DefaultCarParkService_CarParkAvailabilityClient"><path codeLine="64" d="M1171.05,421.85 C1234.26,443.22 1299.6621,465.3368 1358.7621,485.3168 " fill="none" id="DefaultCarParkService-to-CarParkAvailabilityClient" style="stroke:#181818;stroke-width:1.0;"/><polygon fill="#181818" points="1370.13,489.16,1365.7271,483.4491,1358.7621,485.3168,1363.165,491.0277,1370.13,489.16" style="stroke:#181818;stroke-width:1.0;"/></g><!--link DefaultCarParkService to DistanceComputer--><g id="link_DefaultCarParkService_DistanceComputer"><path codeLine="65" d="M1053,421.75 C1053,443.25 1053,457.41 1053,477.46 " fill="none" id="DefaultCarParkService-to-DistanceComputer" style="stroke:#181818;stroke-width:1.0;"/><polygon fill="#181818" points="1053,489.46,1057,483.46,1053,477.46,1049,483.46,1053,489.46" style="stroke:#181818;stroke-width:1.0;"/></g><!--reverse link DistanceComputer to EquirectangularDistanceComputer--><g id="link_DistanceComputer_EquirectangularDistanceComputer"><path codeLine="66" d="M1053,572.44 C1053,595.19 1053,607.75 1053,630.47 " fill="none" id="DistanceComputer-backto-EquirectangularDistanceComputer" style="stroke:#181818;stroke-width:1.0;"/><polygon fill="none" points="1053,554.44,1047,572.44,1059,572.44,1053,554.44" style="stroke:#181818;stroke-width:1.0;"/></g><!--reverse link CarParkRepository to SpringJpaCarParkRepository--><g id="link_CarParkRepository_SpringJpaCarParkRepository"><path codeLine="67" d="M635,580.73 C635,599.34 635,603.44 635,622.05 " fill="none" id="CarParkRepository-backto-SpringJpaCarParkRepository" style="stroke:#181818;stroke-width:1.0;"/><polygon fill="none" points="635,562.73,629,580.73,641,580.73,635,562.73" style="stroke:#181818;stroke-width:1.0;"/></g><!--reverse link CarParkAvailabilityClient to SingaporeCarParkAvailabilityClient--><g id="link_CarParkAvailabilityClient_SingaporeCarParkAvailabilityClient"><path codeLine="68" d="M1464,572.44 C1464,595.19 1464,607.75 1464,630.47 " fill="none" id="CarParkAvailabilityClient-backto-SingaporeCarParkAvailabilityClient" style="stroke:#181818;stroke-width:1.0;"/><polygon fill="none" points="1464,554.44,1458,572.44,1470,572.44,1464,554.44" style="stroke:#181818;stroke-width:1.0;"/></g><!--SRC=[pLJDRjim3BxhARIUt6tf2wmeqBezT6YBONa2sg8phhBeIdI0eEkxJv6JnOwTvD81zSKo-V77toTIkD72kc0HhhKXZwKGEwKg3pNgCyCra3lJhqh7vnEvqhO6TMU-QDhQghST60IqU72XGg-v-1sJRKDB2o7e7FmFyC_NIo0B1LcILVGdm5ilKLW5mLgJ4_IG6ffCaxCJpzR6Ofrt_NpH3nJaSWEvqXKvyuJWCSZ65hASsHjo8AZBVyVpJHlfbKfNKEAsrXpzakBdknMQIX5WYRlOxg3BZM7GNyV3BLRGMlcOBOue_8aD1nBsgnCjtgpkJSYIVIwUtE9Aamd7UxgsDXjQZ_0sRzPPlpVmWJhRqNKRmU1ApBbkMjcxt8RRmgwbIhvxzuWHqHUnybn_rJs3y0G33_JIKW5Xg-KZBJn40WQrban6ryc3sN5j-nETMq8dWqnJSr-XbBy6SHqeE_yseLZa6XhsUBZU-nQyY_oibo6uHMl1_pTDOb4rNcUpsUUznQFsXlpopsmsFV_geBOJMQStI0-u6utJsB4eHsBs6LKZYjCldj11ZISuXHsUS7Nu1dMH9s_QNm00]--></g></svg>