<?xml version="1.0" encoding="us-ascii" standalone="no"?><svg xmlns="http://www.w3.org/2000/svg" xmlns:xlink="http://www.w3.org/1999/xlink" contentStyleType="text/css" height="263px" preserveAspectRatio="none" style="width:157px;height:263px;background:#FFFFFF;" version="1.1" viewBox="0 0 157 263" width="157px" zoomAndPan="magnify"><defs/><g><!--class CarPark--><g id="elem_CarPark"><rect codeLine="1" fill="#F1F1F1" height="103.8633" id="CarPark" rx="2.5" ry="2.5" style="stroke:#181818;stroke-width:0.5;" width="104" x="26.5" y="7"/><ellipse cx="50.5" cy="23" fill="#ADD1B2" rx="11" ry="11" style="stroke:#181818;stroke-width:1.0;"/><path d="M53.2656,18.875 Q53.4219,18.6563 53.6094,18.5469 Q53.7969,18.4375 54.0156,18.4375 Q54.3906,18.4375 54.625,18.7031 Q54.8594,18.9531 54.8594,19.5625 L54.8594,21.0156 Q54.8594,21.625 54.625,21.8906 Q54.3906,22.1563 54.0156,22.1563 Q53.6719,22.1563 53.4688,21.9531 Q53.2656,21.7656 53.1563,21.25 Q53.1094,20.8906 52.9219,20.7031 Q52.5938,20.3281 51.9844,20.1094 Q51.375,19.8906 50.75,19.8906 Q49.9844,19.8906 49.3438,20.2188 Q48.7188,20.5469 48.2188,21.2969 Q47.7344,22.0469 47.7344,23.0781 L47.7344,24.1719 Q47.7344,25.4063 48.625,26.2344 Q49.5156,27.0469 51.1094,27.0469 Q52.0469,27.0469 52.7031,26.7969 Q53.0938,26.6406 53.5156,26.2031 Q53.7813,25.9375 53.9219,25.8594 Q54.0781,25.7813 54.2813,25.7813 Q54.6094,25.7813 54.8594,26.0469 Q55.125,26.2969 55.125,26.6406 Q55.125,26.9844 54.7813,27.3906 Q54.2813,27.9688 53.4844,28.2969 Q52.4063,28.75 51.1094,28.75 Q49.5938,28.75 48.3906,28.125 Q47.4063,27.625 46.7188,26.5625 Q46.0313,25.4844 46.0313,24.2031 L46.0313,23.0469 Q46.0313,21.7188 46.6406,20.5781 Q47.2656,19.4219 48.3594,18.8125 Q49.4531,18.1875 50.6875,18.1875 Q51.4219,18.1875 52.0625,18.3594 Q52.7188,18.5156 53.2656,18.875 Z " fill="#000000"/><text fill="#000000" font-family="sans-serif" font-size="14" lengthAdjust="spacing" textLength="52" x="66.5" y="28.7969">CarPark</text><line style="stroke:#181818;stroke-width:0.5;" x1="27.5" x2="129.5" y1="39" y2="39"/><text fill="#000000" font-family="sans-serif" font-size="14" lengthAdjust="spacing" textLength="52" x="32.5" y="58.1074">String id</text><text fill="#000000" font-family="sans-serif" font-size="14" lengthAdjust="spacing" textLength="92" x="32.5" y="76.7285">String address</text><text fill="#000000" font-family="sans-serif" font-size="14" lengthAdjust="spacing" textLength="85" x="32.5" y="95.3496">Point location</text><line style="stroke:#181818;stroke-width:0.5;" x1="27.5" x2="129.5" y1="102.8633" y2="102.8633"/></g><!--class Point--><g id="elem_Point"><rect codeLine="7" fill="#F1F1F1" height="85.2422" id="Point" rx="2.5" ry="2.5" style="stroke:#181818;stroke-width:0.5;" width="143" x="7" y="171"/><ellipse cx="58.25" cy="187" fill="#ADD1B2" rx="11" ry="11" style="stroke:#181818;stroke-width:1.0;"/><path d="M61.0156,182.875 Q61.1719,182.6563 61.3594,182.5469 Q61.5469,182.4375 61.7656,182.4375 Q62.1406,182.4375 62.375,182.7031 Q62.6094,182.9531 62.6094,183.5625 L62.6094,185.0156 Q62.6094,185.625 62.375,185.8906 Q62.1406,186.1563 61.7656,186.1563 Q61.4219,186.1563 61.2188,185.9531 Q61.0156,185.7656 60.9063,185.25 Q60.8594,184.8906 60.6719,184.7031 Q60.3438,184.3281 59.7344,184.1094 Q59.125,183.8906 58.5,183.8906 Q57.7344,183.8906 57.0938,184.2188 Q56.4688,184.5469 55.9688,185.2969 Q55.4844,186.0469 55.4844,187.0781 L55.4844,188.1719 Q55.4844,189.4063 56.375,190.2344 Q57.2656,191.0469 58.8594,191.0469 Q59.7969,191.0469 60.4531,190.7969 Q60.8438,190.6406 61.2656,190.2031 Q61.5313,189.9375 61.6719,189.8594 Q61.8281,189.7813 62.0313,189.7813 Q62.3594,189.7813 62.6094,190.0469 Q62.875,190.2969 62.875,190.6406 Q62.875,190.9844 62.5313,191.3906 Q62.0313,191.9688 61.2344,192.2969 Q60.1563,192.75 58.8594,192.75 Q57.3438,192.75 56.1406,192.125 Q55.1563,191.625 54.4688,190.5625 Q53.7813,189.4844 53.7813,188.2031 L53.7813,187.0469 Q53.7813,185.7188 54.3906,184.5781 Q55.0156,183.4219 56.1094,182.8125 Q57.2031,182.1875 58.4375,182.1875 Q59.1719,182.1875 59.8125,182.3594 Q60.4688,182.5156 61.0156,182.875 Z " fill="#000000"/><text fill="#000000" font-family="sans-serif" font-size="14" lengthAdjust="spacing" textLength="32" x="78.75" y="192.7969">Point</text><line style="stroke:#181818;stroke-width:0.5;" x1="8" x2="149" y1="203" y2="203"/><text fill="#000000" font-family="sans-serif" font-size="14" lengthAdjust="spacing" textLength="131" x="13" y="222.1074">double x; // longitude</text><text fill="#000000" font-family="sans-serif" font-size="14" lengthAdjust="spacing" textLength="120" x="13" y="240.7285">double y; // latitude</text><line style="stroke:#181818;stroke-width:0.5;" x1="8" x2="149" y1="248.2422" y2="248.2422"/></g><!--link CarPark to Point--><g id="link_CarPark_Point"><path codeLine="12" d="M78.5,111.2 C78.5,130.59 78.5,140.4 78.5,158.8 " fill="none" id="CarPark-to-Point" style="stroke:#181818;stroke-width:1.0;"/><polygon fill="#181818" points="78.5,170.8,82.5,164.8,78.5,158.8,74.5,164.8,78.5,170.8" style="stroke:#181818;stroke-width:1.0;"/></g><!--SRC=[Iyv9B2vMS4ui2aWiobQevb80Wk2IeioyT8NC56HUOafAKMfnCLWe83yphqGX9pyviIGpFu-hbeih6MmCH1nYI4f-QL9EgaA5jOA-Fb1fNdfcIMbAAh9K9KGAQ0PO1cWAp1cwkbeGim00]--></g></svg>