<?xml version="1.0" encoding="us-ascii" standalone="no"?><svg xmlns="http://www.w3.org/2000/svg" xmlns:xlink="http://www.w3.org/1999/xlink" contentStyleType="text/css" height="725px" preserveAspectRatio="none" style="width:1892px;height:725px;background:#FFFFFF;" version="1.1" viewBox="0 0 1892 725" width="1892px" zoomAndPan="magnify"><defs/><g><!--cluster domain--><g id="cluster_domain"><rect fill="none" height="289.44" rx="2.5" ry="2.5" style="stroke:#181818;stroke-width:1.0;" width="198" x="7" y="7"/><path d="M71,7 L71,16.4883 L61,26.4883 L7,26.4883 " fill="none" style="stroke:#181818;stroke-width:1.0;"/><text fill="#000000" font-family="sans-serif" font-size="14" font-weight="bold" lengthAdjust="spacing" textLength="54" x="10" y="21.5352">domain</text></g><!--cluster data transfer object--><g id="cluster_data transfer object"><rect fill="none" height="99" rx="2.5" ry="2.5" style="stroke:#181818;stroke-width:1.0;" width="431" x="229" y="31.73"/><path d="M381,31.73 L381,41.2183 L371,51.2183 L229,51.2183 " fill="none" style="stroke:#181818;stroke-width:1.0;"/><text fill="#000000" font-family="sans-serif" font-size="14" font-weight="bold" lengthAdjust="spacing" textLength="142" x="232" y="46.2652">data transfer object</text></g><!--cluster system interaction--><g id="cluster_system interaction"><rect fill="none" height="695.88" rx="2.5" ry="2.5" style="stroke:#181818;stroke-width:1.0;" width="1202" x="684" y="23.49"/><path d="M829,23.49 L829,32.9783 L819,42.9783 L684,42.9783 " fill="none" style="stroke:#181818;stroke-width:1.0;"/><text fill="#000000" font-family="sans-serif" font-size="14" font-weight="bold" lengthAdjust="spacing" textLength="135" x="687" y="38.0252">system interaction</text></g><!--class CarPark--><g id="elem_CarPark"><rect codeLine="1" fill="#F1F1F1" height="97.4648" id="CarPark" rx="2.5" ry="2.5" style="stroke:#181818;stroke-width:0.5;" width="167" x="22.5" y="42"/><ellipse cx="74.75" cy="58" fill="#ADD1B2" rx="11" ry="11" style="stroke:#181818;stroke-width:1.0;"/><path d="M77.7231,63.6431 Q77.1421,63.9419 76.5029,64.0913 Q75.8638,64.2407 75.1582,64.2407 Q72.6514,64.2407 71.3315,62.5889 Q70.0117,60.937 70.0117,57.8159 Q70.0117,54.6865 71.3315,53.0347 Q72.6514,51.3828 75.1582,51.3828 Q75.8638,51.3828 76.5112,51.5322 Q77.1587,51.6816 77.7231,51.9805 L77.7231,54.7031 Q77.0923,54.1221 76.4988,53.8523 Q75.9053,53.5825 75.2744,53.5825 Q73.9297,53.5825 73.2449,54.6492 Q72.5601,55.7158 72.5601,57.8159 Q72.5601,59.9077 73.2449,60.9744 Q73.9297,62.041 75.2744,62.041 Q75.9053,62.041 76.4988,61.7712 Q77.0923,61.5015 77.7231,60.9204 Z " fill="#000000"/><text fill="#000000" font-family="sans-serif" font-size="14" lengthAdjust="spacing" textLength="54" x="95.25" y="63.291">CarPark</text><line style="stroke:#181818;stroke-width:0.5;" x1="23.5" x2="188.5" y1="74" y2="74"/><text fill="#000000" font-family="sans-serif" font-size="14" lengthAdjust="spacing" textLength="58" x="28.5" y="91.5352">String id</text><text fill="#000000" font-family="sans-serif" font-size="14" lengthAdjust="spacing" textLength="99" x="28.5" y="108.0234">String address</text><text fill="#000000" font-family="sans-serif" font-size="14" lengthAdjust="spacing" textLength="155" x="28.5" y="124.5117">Coordinate coordinate</text><line style="stroke:#181818;stroke-width:0.5;" x1="23.5" x2="188.5" y1="131.4648" y2="131.4648"/></g><!--class Coordinate--><g id="elem_Coordinate"><rect codeLine="7" fill="#F1F1F1" height="80.9766" id="Coordinate" rx="2.5" ry="2.5" style="stroke:#181818;stroke-width:0.5;" width="130" x="41" y="199.46"/><ellipse cx="65.45" cy="215.46" fill="#ADD1B2" rx="11" ry="11" style="stroke:#181818;stroke-width:1.0;"/><path d="M68.4231,221.1031 Q67.8421,221.4019 67.2029,221.5513 Q66.5638,221.7007 65.8582,221.7007 Q63.3514,221.7007 62.0315,220.0489 Q60.7117,218.397 60.7117,215.2759 Q60.7117,212.1465 62.0315,210.4947 Q63.3514,208.8428 65.8582,208.8428 Q66.5638,208.8428 67.2112,208.9922 Q67.8587,209.1416 68.4231,209.4405 L68.4231,212.1631 Q67.7923,211.5821 67.1988,211.3123 Q66.6053,211.0425 65.9744,211.0425 Q64.6297,211.0425 63.9449,212.1092 Q63.2601,213.1758 63.2601,215.2759 Q63.2601,217.3677 63.9449,218.4344 Q64.6297,219.501 65.9744,219.501 Q66.6053,219.501 67.1988,219.2312 Q67.7923,218.9615 68.4231,218.3804 Z " fill="#000000"/><text fill="#000000" font-family="sans-serif" font-size="14" lengthAdjust="spacing" textLength="77" x="81.55" y="220.751">Coordinate</text><line style="stroke:#181818;stroke-width:0.5;" x1="42" x2="170" y1="231.46" y2="231.46"/><text fill="#000000" font-family="sans-serif" font-size="14" lengthAdjust="spacing" textLength="118" x="47" y="248.9952">double longitude</text><text fill="#000000" font-family="sans-serif" font-size="14" lengthAdjust="spacing" textLength="104" x="47" y="265.4834">double latitude</text><line style="stroke:#181818;stroke-width:0.5;" x1="42" x2="170" y1="272.4366" y2="272.4366"/></g><!--class CarParkAvailability--><g id="elem_CarParkAvailability"><rect codeLine="8" fill="#F1F1F1" height="48" id="CarParkAvailability" rx="2.5" ry="2.5" style="stroke:#181818;stroke-width:0.5;" width="160" x="484" y="66.73"/><ellipse cx="499" cy="82.73" fill="#ADD1B2" rx="11" ry="11" style="stroke:#181818;stroke-width:1.0;"/><path d="M501.9731,88.3731 Q501.3921,88.6719 500.7529,88.8213 Q500.1138,88.9707 499.4082,88.9707 Q496.9014,88.9707 495.5815,87.3189 Q494.2617,85.667 494.2617,82.5459 Q494.2617,79.4165 495.5815,77.7647 Q496.9014,76.1128 499.4082,76.1128 Q500.1138,76.1128 500.7612,76.2622 Q501.4087,76.4116 501.9731,76.7105 L501.9731,79.4331 Q501.3423,78.8521 500.7488,78.5823 Q500.1553,78.3125 499.5244,78.3125 Q498.1797,78.3125 497.4949,79.3792 Q496.8101,80.4458 496.8101,82.5459 Q496.8101,84.6377 497.4949,85.7044 Q498.1797,86.771 499.5244,86.771 Q500.1553,86.771 500.7488,86.5012 Q501.3423,86.2315 501.9731,85.6504 Z " fill="#000000"/><text fill="#000000" font-family="sans-serif" font-size="14" lengthAdjust="spacing" textLength="128" x="513" y="88.021">CarParkAvailability</text><line style="stroke:#181818;stroke-width:0.5;" x1="485" x2="643" y1="98.73" y2="98.73"/><line style="stroke:#181818;stroke-width:0.5;" x1="485" x2="643" y1="106.73" y2="106.73"/></g><!--class NearestCarParkResponse--><g id="elem_NearestCarParkResponse"><rect codeLine="9" fill="#F1F1F1" height="48" id="NearestCarParkResponse" rx="2.5" ry="2.5" style="stroke:#181818;stroke-width:0.5;" width="204" x="245" y="66.73"/><ellipse cx="260" cy="82.73" fill="#ADD1B2" rx="11" ry="11" style="stroke:#181818;stroke-width:1.0;"/><path d="M262.9731,88.3731 Q262.3921,88.6719 261.7529,88.8213 Q261.1138,88.9707 260.4082,88.9707 Q257.9014,88.9707 256.5815,87.3189 Q255.2617,85.667 255.2617,82.5459 Q255.2617,79.4165 256.5815,77.7647 Q257.9014,76.1128 260.4082,76.1128 Q261.1138,76.1128 261.7612,76.2622 Q262.4087,76.4116 262.9731,76.7105 L262.9731,79.4331 Q262.3423,78.8521 261.7488,78.5823 Q261.1553,78.3125 260.5244,78.3125 Q259.1797,78.3125 258.4949,79.3792 Q257.8101,80.4458 257.8101,82.5459 Q257.8101,84.6377 258.4949,85.7044 Q259.1797,86.771 260.5244,86.771 Q261.1553,86.771 261.7488,86.5012 Q262.3423,86.2315 262.9731,85.6504 Z " fill="#000000"/><text fill="#000000" font-family="sans-serif" font-size="14" lengthAdjust="spacing" textLength="172" x="274" y="88.021">NearestCarParkResponse</text><line style="stroke:#181818;stroke-width:0.5;" x1="246" x2="448" y1="98.73" y2="98.73"/><line style="stroke:#181818;stroke-width:0.5;" x1="246" x2="448" y1="106.73" y2="106.73"/></g><!--class CarParkController--><g id="elem_CarParkController"><rect codeLine="13" fill="#F1F1F1" height="64.4883" id="CarParkController" rx="2.5" ry="2.5" style="stroke:#181818;stroke-width:0.5;" width="693" x="1104.5" y="58.49"/><ellipse cx="1384.75" cy="74.49" fill="#ADD1B2" rx="11" ry="11" style="stroke:#181818;stroke-width:1.0;"/><path d="M1387.7231,80.1331 Q1387.1421,80.4319 1386.5029,80.5813 Q1385.8638,80.7307 1385.1582,80.7307 Q1382.6514,80.7307 1381.3315,79.0789 Q1380.0117,77.427 1380.0117,74.3059 Q1380.0117,71.1765 1381.3315,69.5247 Q1382.6514,67.8728 1385.1582,67.8728 Q1385.8638,67.8728 1386.5112,68.0222 Q1387.1587,68.1716 1387.7231,68.4705 L1387.7231,71.1931 Q1387.0923,70.6121 1386.4988,70.3423 Q1385.9053,70.0725 1385.2744,70.0725 Q1383.9297,70.0725 1383.2449,71.1392 Q1382.5601,72.2058 1382.5601,74.3059 Q1382.5601,76.3977 1383.2449,77.4644 Q1383.9297,78.531 1385.2744,78.531 Q1385.9053,78.531 1386.4988,78.2612 Q1387.0923,77.9915 1387.7231,77.4104 Z " fill="#000000"/><text fill="#000000" font-family="sans-serif" font-size="14" lengthAdjust="spacing" textLength="124" x="1405.25" y="79.781">CarParkController</text><line style="stroke:#181818;stroke-width:0.5;" x1="1105.5" x2="1796.5" y1="90.49" y2="90.49"/><line style="stroke:#181818;stroke-width:0.5;" x1="1105.5" x2="1796.5" y1="98.49" y2="98.49"/><ellipse cx="1115.5" cy="112.2341" fill="#84BE84" rx="3" ry="3" style="stroke:#038048;stroke-width:1.0;"/><text fill="#000000" font-family="sans-serif" font-size="14" lengthAdjust="spacing" textLength="667" x="1124.5" y="116.0252">List&lt;NearestCarParkResponse&gt; findNearestCarParks(Coordinate coordinate, Pageable  pageable)</text></g><!--class CarParkService--><g id="elem_CarParkService"><rect codeLine="17" fill="#F1F1F1" height="80.9766" id="CarParkService" rx="2.5" ry="2.5" style="stroke:#181818;stroke-width:0.5;" width="571" x="1165.5" y="199.46"/><ellipse cx="1395.75" cy="215.46" fill="#B4A7E5" rx="11" ry="11" style="stroke:#181818;stroke-width:1.0;"/><path d="M1391.6777,211.2251 L1391.6777,209.0669 L1399.0571,209.0669 L1399.0571,211.2251 L1396.5918,211.2251 L1396.5918,219.3018 L1399.0571,219.3018 L1399.0571,221.46 L1391.6777,221.46 L1391.6777,219.3018 L1394.1431,219.3018 L1394.1431,211.2251 Z " fill="#000000"/><text fill="#000000" font-family="sans-serif" font-size="14" font-style="italic" lengthAdjust="spacing" textLength="102" x="1416.25" y="220.751">CarParkService</text><line style="stroke:#181818;stroke-width:0.5;" x1="1166.5" x2="1735.5" y1="231.46" y2="231.46"/><line style="stroke:#181818;stroke-width:0.5;" x1="1166.5" x2="1735.5" y1="239.46" y2="239.46"/><ellipse cx="1176.5" cy="253.2041" fill="#84BE84" rx="3" ry="3" style="stroke:#038048;stroke-width:1.0;"/><text fill="#000000" font-family="sans-serif" font-size="14" lengthAdjust="spacing" textLength="545" x="1185.5" y="256.9952">List&lt;CarPark&gt; findNearestCarParks(Coordinate coordinate, Pageable pageable)</text><ellipse cx="1176.5" cy="269.6924" fill="#84BE84" rx="3" ry="3" style="stroke:#038048;stroke-width:1.0;"/><text fill="#000000" font-family="sans-serif" font-size="14" lengthAdjust="spacing" textLength="320" x="1185.5" y="273.4834">List&lt;CarPark&gt; saveCarParks(CarPark carParks)</text></g><!--class DefaultCarParkService--><g id="elem_DefaultCarParkService"><rect codeLine="22" fill="#F1F1F1" height="80.9766" id="DefaultCarParkService" rx="2.5" ry="2.5" style="stroke:#181818;stroke-width:0.5;" width="571" x="1085.5" y="340.44"/><ellipse cx="1291.25" cy="356.44" fill="#ADD1B2" rx="11" ry="11" style="stroke:#181818;stroke-width:1.0;"/><path d="M1294.2231,362.0831 Q1293.6421,362.3819 1293.0029,362.5313 Q1292.3638,362.6807 1291.6582,362.6807 Q1289.1514,362.6807 1287.8315,361.0289 Q1286.5117,359.377 1286.5117,356.2559 Q1286.5117,353.1265 1287.8315,351.4747 Q1289.1514,349.8228 1291.6582,349.8228 Q1292.3638,349.8228 1293.0112,349.9722 Q1293.6587,350.1216 1294.2231,350.4205 L1294.2231,353.1431 Q1293.5923,352.5621 1292.9988,352.2923 Q1292.4053,352.0225 1291.7744,352.0225 Q1290.4297,352.0225 1289.7449,353.0892 Q1289.0601,354.1558 1289.0601,356.2559 Q1289.0601,358.3477 1289.7449,359.4144 Q1290.4297,360.481 1291.7744,360.481 Q1292.4053,360.481 1292.9988,360.2112 Q1293.5923,359.9415 1294.2231,359.3604 Z " fill="#000000"/><text fill="#000000" font-family="sans-serif" font-size="14" lengthAdjust="spacing" textLength="151" x="1311.75" y="361.731">DefaultCarParkService</text><line style="stroke:#181818;stroke-width:0.5;" x1="1086.5" x2="1655.5" y1="372.44" y2="372.44"/><line style="stroke:#181818;stroke-width:0.5;" x1="1086.5" x2="1655.5" y1="380.44" y2="380.44"/><ellipse cx="1096.5" cy="394.1841" fill="#84BE84" rx="3" ry="3" style="stroke:#038048;stroke-width:1.0;"/><text fill="#000000" font-family="sans-serif" font-size="14" lengthAdjust="spacing" textLength="545" x="1105.5" y="397.9752">List&lt;CarPark&gt; findNearestCarParks(Coordinate coordinate, Pageable pageable)</text><ellipse cx="1096.5" cy="410.6724" fill="#84BE84" rx="3" ry="3" style="stroke:#038048;stroke-width:1.0;"/><text fill="#000000" font-family="sans-serif" font-size="14" lengthAdjust="spacing" textLength="320" x="1105.5" y="414.4634">List&lt;CarPark&gt; saveCarParks(CarPark carParks)</text></g><!--class CarParkRepository--><g id="elem_CarParkRepository"><rect codeLine="27" fill="#F1F1F1" height="80.9766" id="CarParkRepository" rx="2.5" ry="2.5" style="stroke:#181818;stroke-width:0.5;" width="348" x="700" y="481.42"/><ellipse cx="806.25" cy="497.42" fill="#B4A7E5" rx="11" ry="11" style="stroke:#181818;stroke-width:1.0;"/><path d="M802.1777,493.1851 L802.1777,491.0269 L809.5571,491.0269 L809.5571,493.1851 L807.0918,493.1851 L807.0918,501.2618 L809.5571,501.2618 L809.5571,503.42 L802.1777,503.42 L802.1777,501.2618 L804.6431,501.2618 L804.6431,493.1851 Z " fill="#000000"/><text fill="#000000" font-family="sans-serif" font-size="14" font-style="italic" lengthAdjust="spacing" textLength="127" x="826.75" y="502.711">CarParkRepository</text><line style="stroke:#181818;stroke-width:0.5;" x1="701" x2="1047" y1="513.42" y2="513.42"/><line style="stroke:#181818;stroke-width:0.5;" x1="701" x2="1047" y1="521.42" y2="521.42"/><ellipse cx="711" cy="535.1641" fill="#84BE84" rx="3" ry="3" style="stroke:#038048;stroke-width:1.0;"/><text fill="#000000" font-family="sans-serif" font-size="14" lengthAdjust="spacing" textLength="285" x="720" y="538.9552">List&lt;CarPark&gt; findByIds(List&lt;String&gt; ids)</text><ellipse cx="711" cy="551.6524" fill="#84BE84" rx="3" ry="3" style="stroke:#038048;stroke-width:1.0;"/><text fill="#000000" font-family="sans-serif" font-size="14" lengthAdjust="spacing" textLength="322" x="720" y="555.4434">List&lt;CarPark&gt; saveAll(List&lt;CarPark&gt; carParks)</text></g><!--class SpringJpaCarParkRepository--><g id="elem_SpringJpaCarParkRepository"><rect codeLine="32" fill="#F1F1F1" height="80.9766" id="SpringJpaCarParkRepository" rx="2.5" ry="2.5" style="stroke:#181818;stroke-width:0.5;" width="348" x="700" y="622.39"/><ellipse cx="773.25" cy="638.39" fill="#ADD1B2" rx="11" ry="11" style="stroke:#181818;stroke-width:1.0;"/><path d="M776.2231,644.0331 Q775.6421,644.3319 775.0029,644.4813 Q774.3638,644.6307 773.6582,644.6307 Q771.1514,644.6307 769.8315,642.9789 Q768.5117,641.327 768.5117,638.2059 Q768.5117,635.0765 769.8315,633.4247 Q771.1514,631.7728 773.6582,631.7728 Q774.3638,631.7728 775.0112,631.9222 Q775.6587,632.0716 776.2231,632.3705 L776.2231,635.0931 Q775.5923,634.5121 774.9988,634.2423 Q774.4053,633.9725 773.7744,633.9725 Q772.4297,633.9725 771.7449,635.0392 Q771.0601,636.1058 771.0601,638.2059 Q771.0601,640.2977 771.7449,641.3644 Q772.4297,642.431 773.7744,642.431 Q774.4053,642.431 774.9988,642.1612 Q775.5923,641.8915 776.2231,641.3104 Z " fill="#000000"/><text fill="#000000" font-family="sans-serif" font-size="14" lengthAdjust="spacing" textLength="193" x="793.75" y="643.681">SpringJpaCarParkRepository</text><line style="stroke:#181818;stroke-width:0.5;" x1="701" x2="1047" y1="654.39" y2="654.39"/><line style="stroke:#181818;stroke-width:0.5;" x1="701" x2="1047" y1="662.39" y2="662.39"/><ellipse cx="711" cy="676.1341" fill="#84BE84" rx="3" ry="3" style="stroke:#038048;stroke-width:1.0;"/><text fill="#000000" font-family="sans-serif" font-size="14" lengthAdjust="spacing" textLength="285" x="720" y="679.9252">List&lt;CarPark&gt; findByIds(List&lt;String&gt; ids)</text><ellipse cx="711" cy="692.6224" fill="#84BE84" rx="3" ry="3" style="stroke:#038048;stroke-width:1.0;"/><text fill="#000000" font-family="sans-serif" font-size="14" lengthAdjust="spacing" textLength="322" x="720" y="696.4134">List&lt;CarPark&gt; saveAll(List&lt;CarPark&gt; carParks)</text></g><!--class DistanceComputer--><g id="elem_DistanceComputer"><rect codeLine="37" fill="#F1F1F1" height="64.4883" id="DistanceComputer" rx="2.5" ry="2.5" style="stroke:#181818;stroke-width:0.5;" width="417" x="1083.5" y="489.66"/><ellipse cx="1224.25" cy="505.66" fill="#B4A7E5" rx="11" ry="11" style="stroke:#181818;stroke-width:1.0;"/><path d="M1220.1777,501.4251 L1220.1777,499.2669 L1227.5571,499.2669 L1227.5571,501.4251 L1225.0918,501.4251 L1225.0918,509.5018 L1227.5571,509.5018 L1227.5571,511.66 L1220.1777,511.66 L1220.1777,509.5018 L1222.6431,509.5018 L1222.6431,501.4251 Z " fill="#000000"/><text fill="#000000" font-family="sans-serif" font-size="14" font-style="italic" lengthAdjust="spacing" textLength="127" x="1244.75" y="510.951">DistanceComputer</text><line style="stroke:#181818;stroke-width:0.5;" x1="1084.5" x2="1499.5" y1="521.66" y2="521.66"/><line style="stroke:#181818;stroke-width:0.5;" x1="1084.5" x2="1499.5" y1="529.66" y2="529.66"/><ellipse cx="1094.5" cy="543.4041" fill="#84BE84" rx="3" ry="3" style="stroke:#038048;stroke-width:1.0;"/><text fill="#000000" font-family="sans-serif" font-size="14" lengthAdjust="spacing" textLength="391" x="1103.5" y="547.1952">double computeInMeter(Coordinate from, Coordinate to)</text></g><!--class LiquibaseCarParkMigrator--><g id="elem_LiquibaseCarParkMigrator"><rect codeLine="41" fill="#F1F1F1" height="64.4883" id="LiquibaseCarParkMigrator" rx="2.5" ry="2.5" style="stroke:#181818;stroke-width:0.5;" width="210" x="834" y="58.49"/><ellipse cx="849" cy="74.49" fill="#ADD1B2" rx="11" ry="11" style="stroke:#181818;stroke-width:1.0;"/><path d="M851.9731,80.1331 Q851.3921,80.4319 850.7529,80.5813 Q850.1138,80.7307 849.4082,80.7307 Q846.9014,80.7307 845.5815,79.0789 Q844.2617,77.427 844.2617,74.3059 Q844.2617,71.1765 845.5815,69.5247 Q846.9014,67.8728 849.4082,67.8728 Q850.1138,67.8728 850.7612,68.0222 Q851.4087,68.1716 851.9731,68.4705 L851.9731,71.1931 Q851.3423,70.6121 850.7488,70.3423 Q850.1553,70.0725 849.5244,70.0725 Q848.1797,70.0725 847.4949,71.1392 Q846.8101,72.2058 846.8101,74.3059 Q846.8101,76.3977 847.4949,77.4644 Q848.1797,78.531 849.5244,78.531 Q850.1553,78.531 850.7488,78.2612 Q851.3423,77.9915 851.9731,77.4104 Z " fill="#000000"/><text fill="#000000" font-family="sans-serif" font-size="14" lengthAdjust="spacing" textLength="178" x="863" y="79.781">LiquibaseCarParkMigrator</text><line style="stroke:#181818;stroke-width:0.5;" x1="835" x2="1043" y1="90.49" y2="90.49"/><line style="stroke:#181818;stroke-width:0.5;" x1="835" x2="1043" y1="98.49" y2="98.49"/><ellipse cx="845" cy="112.2341" fill="#84BE84" rx="3" ry="3" style="stroke:#038048;stroke-width:1.0;"/><text fill="#000000" font-family="sans-serif" font-size="14" lengthAdjust="spacing" textLength="97" x="854" y="116.0252">void execute()</text></g><!--class LatLonCoordinateConvert--><g id="elem_LatLonCoordinateConvert"><rect codeLine="45" fill="#F1F1F1" height="64.4883" id="LatLonCoordinateConvert" rx="2.5" ry="2.5" style="stroke:#181818;stroke-width:0.5;" width="430" x="700" y="207.71"/><ellipse cx="822.75" cy="223.71" fill="#ADD1B2" rx="11" ry="11" style="stroke:#181818;stroke-width:1.0;"/><path d="M825.7231,229.3531 Q825.1421,229.6519 824.5029,229.8013 Q823.8638,229.9507 823.1582,229.9507 Q820.6514,229.9507 819.3315,228.2989 Q818.0117,226.647 818.0117,223.5259 Q818.0117,220.3965 819.3315,218.7447 Q820.6514,217.0928 823.1582,217.0928 Q823.8638,217.0928 824.5112,217.2422 Q825.1587,217.3916 825.7231,217.6905 L825.7231,220.4131 Q825.0923,219.8321 824.4988,219.5623 Q823.9053,219.2925 823.2744,219.2925 Q821.9297,219.2925 821.2449,220.3592 Q820.5601,221.4258 820.5601,223.5259 Q820.5601,225.6177 821.2449,226.6844 Q821.9297,227.751 823.2744,227.751 Q823.9053,227.751 824.4988,227.4812 Q825.0923,227.2115 825.7231,226.6304 Z " fill="#000000"/><text fill="#000000" font-family="sans-serif" font-size="14" lengthAdjust="spacing" textLength="176" x="843.25" y="229.001">LatLonCoordinateConvert</text><line style="stroke:#181818;stroke-width:0.5;" x1="701" x2="1129" y1="239.71" y2="239.71"/><line style="stroke:#181818;stroke-width:0.5;" x1="701" x2="1129" y1="247.71" y2="247.71"/><ellipse cx="711" cy="261.4541" fill="#84BE84" rx="3" ry="3" style="stroke:#038048;stroke-width:1.0;"/><text fill="#000000" font-family="sans-serif" font-size="14" lengthAdjust="spacing" textLength="404" x="720" y="265.2452">LatLonCoordinate computeSVY21(SVY21Coordinate svy21)</text></g><!--class CarParkAvailabilityClient--><g id="elem_CarParkAvailabilityClient"><rect codeLine="49" fill="#F1F1F1" height="64.4883" id="CarParkAvailabilityClient" rx="2.5" ry="2.5" style="stroke:#181818;stroke-width:0.5;" width="334" x="1536" y="489.66"/><ellipse cx="1614.75" cy="505.66" fill="#B4A7E5" rx="11" ry="11" style="stroke:#181818;stroke-width:1.0;"/><path d="M1610.6777,501.4251 L1610.6777,499.2669 L1618.0571,499.2669 L1618.0571,501.4251 L1615.5918,501.4251 L1615.5918,509.5018 L1618.0571,509.5018 L1618.0571,511.66 L1610.6777,511.66 L1610.6777,509.5018 L1613.1431,509.5018 L1613.1431,501.4251 Z " fill="#000000"/><text fill="#000000" font-family="sans-serif" font-size="14" font-style="italic" lengthAdjust="spacing" textLength="168" x="1635.25" y="510.951">CarParkAvailabilityClient</text><line style="stroke:#181818;stroke-width:0.5;" x1="1537" x2="1869" y1="521.66" y2="521.66"/><line style="stroke:#181818;stroke-width:0.5;" x1="1537" x2="1869" y1="529.66" y2="529.66"/><ellipse cx="1547" cy="543.4041" fill="#84BE84" rx="3" ry="3" style="stroke:#038048;stroke-width:1.0;"/><text fill="#000000" font-family="sans-serif" font-size="14" lengthAdjust="spacing" textLength="308" x="1556" y="547.1952">CarParkAvailability fetchAvailabilityCarPark();</text></g><!--class SingaporeCarParkAvailabilityClient--><g id="elem_SingaporeCarParkAvailabilityClient"><rect codeLine="53" fill="#F1F1F1" height="64.4883" id="SingaporeCarParkAvailabilityClient" rx="2.5" ry="2.5" style="stroke:#181818;stroke-width:0.5;" width="334" x="1536" y="630.64"/><ellipse cx="1579.8" cy="646.64" fill="#ADD1B2" rx="11" ry="11" style="stroke:#181818;stroke-width:1.0;"/><path d="M1582.7731,652.2831 Q1582.1921,652.5819 1581.5529,652.7313 Q1580.9138,652.8807 1580.2082,652.8807 Q1577.7014,652.8807 1576.3815,651.2289 Q1575.0617,649.577 1575.0617,646.4559 Q1575.0617,643.3265 1576.3815,641.6747 Q1577.7014,640.0228 1580.2082,640.0228 Q1580.9138,640.0228 1581.5612,640.1722 Q1582.2087,640.3216 1582.7731,640.6205 L1582.7731,643.3431 Q1582.1423,642.7621 1581.5488,642.4923 Q1580.9553,642.2225 1580.3244,642.2225 Q1578.9797,642.2225 1578.2949,643.2892 Q1577.6101,644.3558 1577.6101,646.4559 Q1577.6101,648.5477 1578.2949,649.6144 Q1578.9797,650.681 1580.3244,650.681 Q1580.9553,650.681 1581.5488,650.4112 Q1582.1423,650.1415 1582.7731,649.5604 Z " fill="#000000"/><text fill="#000000" font-family="sans-serif" font-size="14" lengthAdjust="spacing" textLength="238" x="1600.2" y="651.931">SingaporeCarParkAvailabilityClient</text><line style="stroke:#181818;stroke-width:0.5;" x1="1537" x2="1869" y1="662.64" y2="662.64"/><line style="stroke:#181818;stroke-width:0.5;" x1="1537" x2="1869" y1="670.64" y2="670.64"/><ellipse cx="1547" cy="684.3841" fill="#84BE84" rx="3" ry="3" style="stroke:#038048;stroke-width:1.0;"/><text fill="#000000" font-family="sans-serif" font-size="14" lengthAdjust="spacing" textLength="308" x="1556" y="688.1752">CarParkAvailability fetchAvailabilityCarPark();</text></g><!--class EquirectangularDistanceComputer--><g id="elem_EquirectangularDistanceComputer"><rect codeLine="57" fill="#F1F1F1" height="64.4883" id="EquirectangularDistanceComputer" rx="2.5" ry="2.5" style="stroke:#181818;stroke-width:0.5;" width="417" x="1083.5" y="630.64"/><ellipse cx="1169.75" cy="646.64" fill="#ADD1B2" rx="11" ry="11" style="stroke:#181818;stroke-width:1.0;"/><path d="M1172.7231,652.2831 Q1172.1421,652.5819 1171.5029,652.7313 Q1170.8638,652.8807 1170.1582,652.8807 Q1167.6514,652.8807 1166.3315,651.2289 Q1165.0117,649.577 1165.0117,646.4559 Q1165.0117,643.3265 1166.3315,641.6747 Q1167.6514,640.0228 1170.1582,640.0228 Q1170.8638,640.0228 1171.5112,640.1722 Q1172.1587,640.3216 1172.7231,640.6205 L1172.7231,643.3431 Q1172.0923,642.7621 1171.4988,642.4923 Q1170.9053,642.2225 1170.2744,642.2225 Q1168.9297,642.2225 1168.2449,643.2892 Q1167.5601,644.3558 1167.5601,646.4559 Q1167.5601,648.5477 1168.2449,649.6144 Q1168.9297,650.681 1170.2744,650.681 Q1170.9053,650.681 1171.4988,650.4112 Q1172.0923,650.1415 1172.7231,649.5604 Z " fill="#000000"/><text fill="#000000" font-family="sans-serif" font-size="14" lengthAdjust="spacing" textLength="236" x="1190.25" y="651.931">EquirectangularDistanceComputer</text><line style="stroke:#181818;stroke-width:0.5;" x1="1084.5" x2="1499.5" y1="662.64" y2="662.64"/><line style="stroke:#181818;stroke-width:0.5;" x1="1084.5" x2="1499.5" y1="670.64" y2="670.64"/><ellipse cx="1094.5" cy="684.3841" fill="#84BE84" rx="3" ry="3" style="stroke:#038048;stroke-width:1.0;"/><text fill="#000000" font-family="sans-serif" font-size="14" lengthAdjust="spacing" textLength="391" x="1103.5" y="688.1752">double computeInMeter(Coordinate from, Coordinate to)</text></g><!--link CarPark to Coordinate--><g id="link_CarPark_Coordinate"><path codeLine="12" d="M106,139.94 C106,159.06 106,168.78 106,187 " fill="none" id="CarPark-to-Coordinate" style="stroke:#181818;stroke-width:1.0;"/><polygon fill="#181818" points="106,199,110,193,106,187,102,193,106,199" style="stroke:#181818;stroke-width:1.0;"/></g><!--link CarParkController to CarParkService--><g id="link_CarParkController_CarParkService"><path codeLine="63" d="M1451,123.31 C1451,145.45 1451,163.21 1451,187 " fill="none" id="CarParkController-to-CarParkService" style="stroke:#181818;stroke-width:1.0;"/><polygon fill="#181818" points="1451,199,1455,193,1451,187,1447,193,1451,199" style="stroke:#181818;stroke-width:1.0;"/></g><!--reverse link CarParkService to DefaultCarParkService--><g id="link_CarParkService_DefaultCarParkService"><path codeLine="64" d="M1419.0954,296.3773 C1408.3754,314.9873 1404.64,321.49 1393.93,340.1 " fill="none" id="CarParkService-backto-DefaultCarParkService" style="stroke:#181818;stroke-width:1.0;"/><polygon fill="none" points="1428.08,280.78,1413.8963,293.3825,1424.2945,299.3722,1428.08,280.78" style="stroke:#181818;stroke-width:1.0;"/></g><!--link LiquibaseCarParkMigrator to CarParkService--><g id="link_LiquibaseCarParkMigrator_CarParkService"><path codeLine="65" d="M1035.13,123.43 C1052.36,128.91 1070.18,134.46 1087,139.46 C1156.22,160.08 1221.7519,178.2731 1287.1119,195.8531 " fill="none" id="LiquibaseCarParkMigrator-to-CarParkService" style="stroke:#181818;stroke-width:1.0;"/><polygon fill="#181818" points="1298.7,198.97,1293.9449,193.5488,1287.1119,195.8531,1291.867,201.2743,1298.7,198.97" style="stroke:#181818;stroke-width:1.0;"/></g><!--link DefaultCarParkService to CarParkRepository--><g id="link_DefaultCarParkService_CarParkRepository"><path codeLine="66" d="M1228.25,421.85 C1161.85,440.41 1094.6369,459.2092 1028.2469,477.7692 " fill="none" id="DefaultCarParkService-to-CarParkRepository" style="stroke:#181818;stroke-width:1.0;"/><polygon fill="#181818" points="1016.69,481,1023.5454,483.2369,1028.2469,477.7692,1021.3915,475.5323,1016.69,481" style="stroke:#181818;stroke-width:1.0;"/></g><!--link DefaultCarParkService to CarParkAvailabilityClient--><g id="link_DefaultCarParkService_CarParkAvailabilityClient"><path codeLine="67" d="M1466.14,421.75 C1517.3,443.17 1568.4406,464.5767 1616.2706,484.5967 " fill="none" id="DefaultCarParkService-to-CarParkAvailabilityClient" style="stroke:#181818;stroke-width:1.0;"/><polygon fill="#181818" points="1627.34,489.23,1623.3497,483.2235,1616.2706,484.5967,1620.2608,490.6032,1627.34,489.23" style="stroke:#181818;stroke-width:1.0;"/></g><!--link DefaultCarParkService to DistanceComputer--><g id="link_DefaultCarParkService_DistanceComputer"><path codeLine="68" d="M1348.36,421.75 C1336.14,443.25 1327.1973,458.9761 1315.8073,479.0261 " fill="none" id="DefaultCarParkService-to-DistanceComputer" style="stroke:#181818;stroke-width:1.0;"/><polygon fill="#181818" points="1309.88,489.46,1316.3216,486.2188,1315.8073,479.0261,1309.3657,482.2673,1309.88,489.46" style="stroke:#181818;stroke-width:1.0;"/></g><!--reverse link DistanceComputer to EquirectangularDistanceComputer--><g id="link_DistanceComputer_EquirectangularDistanceComputer"><path codeLine="69" d="M1292,572.44 C1292,595.19 1292,607.75 1292,630.47 " fill="none" id="DistanceComputer-backto-EquirectangularDistanceComputer" style="stroke:#181818;stroke-width:1.0;"/><polygon fill="none" points="1292,554.44,1286,572.44,1298,572.44,1292,554.44" style="stroke:#181818;stroke-width:1.0;"/></g><!--reverse link CarParkRepository to SpringJpaCarParkRepository--><g id="link_CarParkRepository_SpringJpaCarParkRepository"><path codeLine="70" d="M874,580.73 C874,599.34 874,603.44 874,622.05 " fill="none" id="CarParkRepository-backto-SpringJpaCarParkRepository" style="stroke:#181818;stroke-width:1.0;"/><polygon fill="none" points="874,562.73,868,580.73,880,580.73,874,562.73" style="stroke:#181818;stroke-width:1.0;"/></g><!--reverse link CarParkAvailabilityClient to SingaporeCarParkAvailabilityClient--><g id="link_CarParkAvailabilityClient_SingaporeCarParkAvailabilityClient"><path codeLine="71" d="M1703,572.44 C1703,595.19 1703,607.75 1703,630.47 " fill="none" id="CarParkAvailabilityClient-backto-SingaporeCarParkAvailabilityClient" style="stroke:#181818;stroke-width:1.0;"/><polygon fill="none" points="1703,554.44,1697,572.44,1709,572.44,1703,554.44" style="stroke:#181818;stroke-width:1.0;"/></g><!--link LiquibaseCarParkMigrator to LatLonCoordinateConvert--><g id="link_LiquibaseCarParkMigrator_LatLonCoordinateConvert"><path codeLine="72" d="M933.85,123.31 C929.8,148.15 926.1225,170.7566 922.0725,195.5766 " fill="none" id="LiquibaseCarParkMigrator-to-LatLonCoordinateConvert" style="stroke:#181818;stroke-width:1.0;"/><polygon fill="#181818" points="920.14,207.42,925.0541,202.1425,922.0725,195.5766,917.1585,200.8541,920.14,207.42" style="stroke:#181818;stroke-width:1.0;"/></g><!--SRC=[rLHDRzD04BtxLmmzkT0WjLUgIiNbK9IYgf6GE8xjSLXOxvZTiKK4_7VMTeA_4mc113x4c_bwpszcHxW0OOXPX7D8bQL459iWo2pc16SfvwZC6NmBm3_Fb4bqcHAqvfT5cUlWHnUCWY0MZSl80iUVVB53QgBHEOZGFgBzV5kXqXWhhMJNyxuZjEHa7_H4hc3Zg0VWTaue1sM4B3P4Pyj7RCIorfv4wwsV5x1MJgxdCMuWKoOT-bmOCTjK6HI2vDVn0XvnInXh0YZsf_C6nVEiNmsx31CwqDcGhPJ_E-6oz_yU-11xhgh3YhfoxG6IlM50kLNlZZ8ijVmth2T2Fr71JWdRtGdMhtVtgGiR-qQiCjiRKAaxpkbMwt1eFIBbfgYhlYtm7sBMoNNdWz4a575Ub3Aw9IcNTQEIrdTl7iX7zFkQMSule6SGdb5WhRwKAaPtwEM3sbhq0WomAbOfq5TAF58uLmHbpQQ3yXUx8Yj33KSn1-QRzn-kBiFcj-TqrUxgylWKzPTJf1MP8TvC56GaoST1NXiKdh-QcGtVLIpOqZBUdmLyupjHxtKqsrAZ_MlTzw31T0ElLiz7Yp0ORPZhxwlL_F895gTefkhy-ke5TfVmTEoqAKTonee64ucRJppHXs2wAvgqvLqIB4zGctboqeuBl73zVW80]--></g></svg>