<?xml version="1.0" encoding="us-ascii" standalone="no"?><svg xmlns="http://www.w3.org/2000/svg" xmlns:xlink="http://www.w3.org/1999/xlink" contentStyleType="text/css" height="964px" preserveAspectRatio="none" style="width:1502px;height:964px;background:#FFFFFF;" version="1.1" viewBox="0 0 1502 964" width="1502px" zoomAndPan="magnify"><defs/><g><!--cluster data migration--><g id="cluster_data migration"><rect fill="none" height="316" rx="2.5" ry="2.5" style="stroke:#181818;stroke-width:1.0;" width="537" x="7" y="642"/><path d="M117,642 L117,653.6211 L107,663.6211 L7,663.6211 " fill="none" style="stroke:#181818;stroke-width:1.0;"/><text fill="#000000" font-family="sans-serif" font-size="14" font-weight="bold" lengthAdjust="spacing" textLength="100" x="10" y="658.1074">data migration</text></g><!--cluster system--><g id="cluster_system"><rect fill="none" height="803" rx="2.5" ry="2.5" style="stroke:#181818;stroke-width:1.0;" width="928" x="568" y="7"/><path d="M627,7 L627,18.6211 L617,28.6211 L568,28.6211 " fill="none" style="stroke:#181818;stroke-width:1.0;"/><text fill="#000000" font-family="sans-serif" font-size="14" font-weight="bold" lengthAdjust="spacing" textLength="49" x="571" y="23.1074">system</text></g><!--cluster inbound--><g id="cluster_inbound"><rect fill="none" height="120" rx="2.5" ry="2.5" style="stroke:#181818;stroke-width:1.0;" width="754" x="592" y="52"/><path d="M660,52 L660,63.6211 L650,73.6211 L592,73.6211 " fill="none" style="stroke:#181818;stroke-width:1.0;"/><text fill="#000000" font-family="sans-serif" font-size="14" font-weight="bold" lengthAdjust="spacing" textLength="58" x="595" y="68.1074">inbound</text></g><!--cluster domain--><g id="cluster_domain"><rect fill="none" height="359" rx="2.5" ry="2.5" style="stroke:#181818;stroke-width:1.0;" width="880" x="592" y="205"/><path d="M653,205 L653,216.6211 L643,226.6211 L592,226.6211 " fill="none" style="stroke:#181818;stroke-width:1.0;"/><text fill="#000000" font-family="sans-serif" font-size="14" font-weight="bold" lengthAdjust="spacing" textLength="51" x="595" y="221.1074">domain</text></g><!--cluster outbound--><g id="cluster_outbound"><rect fill="none" height="189" rx="2.5" ry="2.5" style="stroke:#181818;stroke-width:1.0;" width="724" x="592" y="597"/><path d="M670,597 L670,608.6211 L660,618.6211 L592,618.6211 " fill="none" style="stroke:#181818;stroke-width:1.0;"/><text fill="#000000" font-family="sans-serif" font-size="14" font-weight="bold" lengthAdjust="spacing" textLength="68" x="595" y="613.1074">outbound</text></g><!--cluster client--><g id="cluster_client"><rect fill="none" height="120" rx="2.5" ry="2.5" style="stroke:#181818;stroke-width:1.0;" width="344" x="948" y="642"/><path d="M997,642 L997,653.6211 L987,663.6211 L948,663.6211 " fill="none" style="stroke:#181818;stroke-width:1.0;"/><text fill="#000000" font-family="sans-serif" font-size="14" font-weight="bold" lengthAdjust="spacing" textLength="39" x="951" y="658.1074">client</text></g><!--cluster persistence--><g id="cluster_persistence"><rect fill="none" height="120" rx="2.5" ry="2.5" style="stroke:#181818;stroke-width:1.0;" width="308" x="616" y="642"/><path d="M710,642 L710,653.6211 L700,663.6211 L616,663.6211 " fill="none" style="stroke:#181818;stroke-width:1.0;"/><text fill="#000000" font-family="sans-serif" font-size="14" font-weight="bold" lengthAdjust="spacing" textLength="84" x="619" y="658.1074">persistence</text></g><!--class LiquibaseCarParkMigrator--><g id="elem_LiquibaseCarParkMigrator"><rect codeLine="5" fill="#F1F1F1" height="66.6211" id="LiquibaseCarParkMigrator" rx="2.5" ry="2.5" style="stroke:#181818;stroke-width:0.5;" width="197" x="330.5" y="679"/><ellipse cx="345.5" cy="695" fill="#ADD1B2" rx="11" ry="11" style="stroke:#181818;stroke-width:1.0;"/><path d="M348.2656,690.875 Q348.4219,690.6563 348.6094,690.5469 Q348.7969,690.4375 349.0156,690.4375 Q349.3906,690.4375 349.625,690.7031 Q349.8594,690.9531 349.8594,691.5625 L349.8594,693.0156 Q349.8594,693.625 349.625,693.8906 Q349.3906,694.1563 349.0156,694.1563 Q348.6719,694.1563 348.4688,693.9531 Q348.2656,693.7656 348.1563,693.25 Q348.1094,692.8906 347.9219,692.7031 Q347.5938,692.3281 346.9844,692.1094 Q346.375,691.8906 345.75,691.8906 Q344.9844,691.8906 344.3438,692.2188 Q343.7188,692.5469 343.2188,693.2969 Q342.7344,694.0469 342.7344,695.0781 L342.7344,696.1719 Q342.7344,697.4063 343.625,698.2344 Q344.5156,699.0469 346.1094,699.0469 Q347.0469,699.0469 347.7031,698.7969 Q348.0938,698.6406 348.5156,698.2031 Q348.7813,697.9375 348.9219,697.8594 Q349.0781,697.7813 349.2813,697.7813 Q349.6094,697.7813 349.8594,698.0469 Q350.125,698.2969 350.125,698.6406 Q350.125,698.9844 349.7813,699.3906 Q349.2813,699.9688 348.4844,700.2969 Q347.4063,700.75 346.1094,700.75 Q344.5938,700.75 343.3906,700.125 Q342.4063,699.625 341.7188,698.5625 Q341.0313,697.4844 341.0313,696.2031 L341.0313,695.0469 Q341.0313,693.7188 341.6406,692.5781 Q342.2656,691.4219 343.3594,690.8125 Q344.4531,690.1875 345.6875,690.1875 Q346.4219,690.1875 347.0625,690.3594 Q347.7188,690.5156 348.2656,690.875 Z " fill="#000000"/><text fill="#000000" font-family="sans-serif" font-size="14" lengthAdjust="spacing" textLength="165" x="359.5" y="700.7969">LiquibaseCarParkMigrator</text><line style="stroke:#181818;stroke-width:0.5;" x1="331.5" x2="526.5" y1="711" y2="711"/><line style="stroke:#181818;stroke-width:0.5;" x1="331.5" x2="526.5" y1="719" y2="719"/><ellipse cx="341.5" cy="733.8105" fill="#84BE84" rx="3" ry="3" style="stroke:#038048;stroke-width:1.0;"/><text fill="#000000" font-family="sans-serif" font-size="14" lengthAdjust="spacing" textLength="89" x="350.5" y="738.1074">void execute()</text></g><!--class LatLonCoordinate--><g id="elem_LatLonCoordinate"><rect codeLine="9" fill="#F1F1F1" height="66.6211" id="LatLonCoordinate" rx="2.5" ry="2.5" style="stroke:#181818;stroke-width:0.5;" width="405" x="23.5" y="875"/><ellipse cx="164.75" cy="891" fill="#ADD1B2" rx="11" ry="11" style="stroke:#181818;stroke-width:1.0;"/><path d="M167.5156,886.875 Q167.6719,886.6563 167.8594,886.5469 Q168.0469,886.4375 168.2656,886.4375 Q168.6406,886.4375 168.875,886.7031 Q169.1094,886.9531 169.1094,887.5625 L169.1094,889.0156 Q169.1094,889.625 168.875,889.8906 Q168.6406,890.1563 168.2656,890.1563 Q167.9219,890.1563 167.7188,889.9531 Q167.5156,889.7656 167.4063,889.25 Q167.3594,888.8906 167.1719,888.7031 Q166.8438,888.3281 166.2344,888.1094 Q165.625,887.8906 165,887.8906 Q164.2344,887.8906 163.5938,888.2188 Q162.9688,888.5469 162.4688,889.2969 Q161.9844,890.0469 161.9844,891.0781 L161.9844,892.1719 Q161.9844,893.4063 162.875,894.2344 Q163.7656,895.0469 165.3594,895.0469 Q166.2969,895.0469 166.9531,894.7969 Q167.3438,894.6406 167.7656,894.2031 Q168.0313,893.9375 168.1719,893.8594 Q168.3281,893.7813 168.5313,893.7813 Q168.8594,893.7813 169.1094,894.0469 Q169.375,894.2969 169.375,894.6406 Q169.375,894.9844 169.0313,895.3906 Q168.5313,895.9688 167.7344,896.2969 Q166.6563,896.75 165.3594,896.75 Q163.8438,896.75 162.6406,896.125 Q161.6563,895.625 160.9688,894.5625 Q160.2813,893.4844 160.2813,892.2031 L160.2813,891.0469 Q160.2813,889.7188 160.8906,888.5781 Q161.5156,887.4219 162.6094,886.8125 Q163.7031,886.1875 164.9375,886.1875 Q165.6719,886.1875 166.3125,886.3594 Q166.9688,886.5156 167.5156,886.875 Z " fill="#000000"/><text fill="#000000" font-family="sans-serif" font-size="14" lengthAdjust="spacing" textLength="114" x="185.25" y="896.7969">LatLonCoordinate</text><line style="stroke:#181818;stroke-width:0.5;" x1="24.5" x2="427.5" y1="907" y2="907"/><line style="stroke:#181818;stroke-width:0.5;" x1="24.5" x2="427.5" y1="915" y2="915"/><ellipse cx="34.5" cy="929.8105" fill="#84BE84" rx="3" ry="3" style="stroke:#038048;stroke-width:1.0;"/><text fill="#000000" font-family="sans-serif" font-size="14" lengthAdjust="spacing" textLength="379" x="43.5" y="934.1074">LatLonCoordinate computeSVY21(SVY21Coordinate svy21)</text></g><!--entity cvsFile--><g id="elem_cvsFile"><path d="M464,891.5 L464,925.1211 A2.5,2.5 0 0 0 466.5,927.6211 L525.5,927.6211 A2.5,2.5 0 0 0 528,925.1211 L528,899 L518,889 L466.5,889 A2.5,2.5 0 0 0 464,891.5 " fill="#F1F1F1" style="stroke:#181818;stroke-width:0.5;"/><path d="M518,889 L518,896.5 A2.5,2.5 0 0 0 520.5,899 L528,899 " fill="#F1F1F1" style="stroke:#181818;stroke-width:0.5;"/><text fill="#000000" font-family="sans-serif" font-size="14" lengthAdjust="spacing" textLength="44" x="474" y="914.1074">cvsFile</text></g><!--class CarParkController--><g id="elem_CarParkController"><rect codeLine="18" fill="#F1F1F1" height="66.6211" id="CarParkController" rx="2.5" ry="2.5" style="stroke:#181818;stroke-width:0.5;" width="722" x="608" y="89"/><ellipse cx="907.75" cy="105" fill="#ADD1B2" rx="11" ry="11" style="stroke:#181818;stroke-width:1.0;"/><path d="M910.5156,100.875 Q910.6719,100.6563 910.8594,100.5469 Q911.0469,100.4375 911.2656,100.4375 Q911.6406,100.4375 911.875,100.7031 Q912.1094,100.9531 912.1094,101.5625 L912.1094,103.0156 Q912.1094,103.625 911.875,103.8906 Q911.6406,104.1563 911.2656,104.1563 Q910.9219,104.1563 910.7188,103.9531 Q910.5156,103.7656 910.4063,103.25 Q910.3594,102.8906 910.1719,102.7031 Q909.8438,102.3281 909.2344,102.1094 Q908.625,101.8906 908,101.8906 Q907.2344,101.8906 906.5938,102.2188 Q905.9688,102.5469 905.4688,103.2969 Q904.9844,104.0469 904.9844,105.0781 L904.9844,106.1719 Q904.9844,107.4063 905.875,108.2344 Q906.7656,109.0469 908.3594,109.0469 Q909.2969,109.0469 909.9531,108.7969 Q910.3438,108.6406 910.7656,108.2031 Q911.0313,107.9375 911.1719,107.8594 Q911.3281,107.7813 911.5313,107.7813 Q911.8594,107.7813 912.1094,108.0469 Q912.375,108.2969 912.375,108.6406 Q912.375,108.9844 912.0313,109.3906 Q911.5313,109.9688 910.7344,110.2969 Q909.6563,110.75 908.3594,110.75 Q906.8438,110.75 905.6406,110.125 Q904.6563,109.625 903.9688,108.5625 Q903.2813,107.4844 903.2813,106.2031 L903.2813,105.0469 Q903.2813,103.7188 903.8906,102.5781 Q904.5156,101.4219 905.6094,100.8125 Q906.7031,100.1875 907.9375,100.1875 Q908.6719,100.1875 909.3125,100.3594 Q909.9688,100.5156 910.5156,100.875 Z " fill="#000000"/><text fill="#000000" font-family="sans-serif" font-size="14" lengthAdjust="spacing" textLength="114" x="928.25" y="110.7969">CarParkController</text><line style="stroke:#181818;stroke-width:0.5;" x1="609" x2="1329" y1="121" y2="121"/><line style="stroke:#181818;stroke-width:0.5;" x1="609" x2="1329" y1="129" y2="129"/><ellipse cx="619" cy="143.8105" fill="#84BE84" rx="3" ry="3" style="stroke:#038048;stroke-width:1.0;"/><text fill="#000000" font-family="sans-serif" font-size="14" lengthAdjust="spacing" textLength="696" x="628" y="148.1074">List&lt;NearestCarPark&gt; findNearestCarParks(Double latitude, Double longitude, Integer page, Integer pageSize)</text></g><!--class CarPark--><g id="elem_CarPark"><rect codeLine="1" fill="#F1F1F1" height="103.8633" id="CarPark" rx="2.5" ry="2.5" style="stroke:#181818;stroke-width:0.5;" width="104" x="1338" y="242"/><ellipse cx="1362" cy="258" fill="#ADD1B2" rx="11" ry="11" style="stroke:#181818;stroke-width:1.0;"/><path d="M1364.7656,253.875 Q1364.9219,253.6563 1365.1094,253.5469 Q1365.2969,253.4375 1365.5156,253.4375 Q1365.8906,253.4375 1366.125,253.7031 Q1366.3594,253.9531 1366.3594,254.5625 L1366.3594,256.0156 Q1366.3594,256.625 1366.125,256.8906 Q1365.8906,257.1563 1365.5156,257.1563 Q1365.1719,257.1563 1364.9688,256.9531 Q1364.7656,256.7656 1364.6563,256.25 Q1364.6094,255.8906 1364.4219,255.7031 Q1364.0938,255.3281 1363.4844,255.1094 Q1362.875,254.8906 1362.25,254.8906 Q1361.4844,254.8906 1360.8438,255.2188 Q1360.2188,255.5469 1359.7188,256.2969 Q1359.2344,257.0469 1359.2344,258.0781 L1359.2344,259.1719 Q1359.2344,260.4063 1360.125,261.2344 Q1361.0156,262.0469 1362.6094,262.0469 Q1363.5469,262.0469 1364.2031,261.7969 Q1364.5938,261.6406 1365.0156,261.2031 Q1365.2813,260.9375 1365.4219,260.8594 Q1365.5781,260.7813 1365.7813,260.7813 Q1366.1094,260.7813 1366.3594,261.0469 Q1366.625,261.2969 1366.625,261.6406 Q1366.625,261.9844 1366.2813,262.3906 Q1365.7813,262.9688 1364.9844,263.2969 Q1363.9063,263.75 1362.6094,263.75 Q1361.0938,263.75 1359.8906,263.125 Q1358.9063,262.625 1358.2188,261.5625 Q1357.5313,260.4844 1357.5313,259.2031 L1357.5313,258.0469 Q1357.5313,256.7188 1358.1406,255.5781 Q1358.7656,254.4219 1359.8594,253.8125 Q1360.9531,253.1875 1362.1875,253.1875 Q1362.9219,253.1875 1363.5625,253.3594 Q1364.2188,253.5156 1364.7656,253.875 Z " fill="#000000"/><text fill="#000000" font-family="sans-serif" font-size="14" lengthAdjust="spacing" textLength="52" x="1378" y="263.7969">CarPark</text><line style="stroke:#181818;stroke-width:0.5;" x1="1339" x2="1441" y1="274" y2="274"/><text fill="#000000" font-family="sans-serif" font-size="14" lengthAdjust="spacing" textLength="52" x="1344" y="293.1074">String id</text><text fill="#000000" font-family="sans-serif" font-size="14" lengthAdjust="spacing" textLength="92" x="1344" y="311.7285">String address</text><text fill="#000000" font-family="sans-serif" font-size="14" lengthAdjust="spacing" textLength="85" x="1344" y="330.3496">Point location</text><line style="stroke:#181818;stroke-width:0.5;" x1="1339" x2="1441" y1="337.8633" y2="337.8633"/></g><!--class Point--><g id="elem_Point"><rect codeLine="7" fill="#F1F1F1" height="85.2422" id="Point" rx="2.5" ry="2.5" style="stroke:#181818;stroke-width:0.5;" width="143" x="1312.5" y="435"/><ellipse cx="1363.75" cy="451" fill="#ADD1B2" rx="11" ry="11" style="stroke:#181818;stroke-width:1.0;"/><path d="M1366.5156,446.875 Q1366.6719,446.6563 1366.8594,446.5469 Q1367.0469,446.4375 1367.2656,446.4375 Q1367.6406,446.4375 1367.875,446.7031 Q1368.1094,446.9531 1368.1094,447.5625 L1368.1094,449.0156 Q1368.1094,449.625 1367.875,449.8906 Q1367.6406,450.1563 1367.2656,450.1563 Q1366.9219,450.1563 1366.7188,449.9531 Q1366.5156,449.7656 1366.4063,449.25 Q1366.3594,448.8906 1366.1719,448.7031 Q1365.8438,448.3281 1365.2344,448.1094 Q1364.625,447.8906 1364,447.8906 Q1363.2344,447.8906 1362.5938,448.2188 Q1361.9688,448.5469 1361.4688,449.2969 Q1360.9844,450.0469 1360.9844,451.0781 L1360.9844,452.1719 Q1360.9844,453.4063 1361.875,454.2344 Q1362.7656,455.0469 1364.3594,455.0469 Q1365.2969,455.0469 1365.9531,454.7969 Q1366.3438,454.6406 1366.7656,454.2031 Q1367.0313,453.9375 1367.1719,453.8594 Q1367.3281,453.7813 1367.5313,453.7813 Q1367.8594,453.7813 1368.1094,454.0469 Q1368.375,454.2969 1368.375,454.6406 Q1368.375,454.9844 1368.0313,455.3906 Q1367.5313,455.9688 1366.7344,456.2969 Q1365.6563,456.75 1364.3594,456.75 Q1362.8438,456.75 1361.6406,456.125 Q1360.6563,455.625 1359.9688,454.5625 Q1359.2813,453.4844 1359.2813,452.2031 L1359.2813,451.0469 Q1359.2813,449.7188 1359.8906,448.5781 Q1360.5156,447.4219 1361.6094,446.8125 Q1362.7031,446.1875 1363.9375,446.1875 Q1364.6719,446.1875 1365.3125,446.3594 Q1365.9688,446.5156 1366.5156,446.875 Z " fill="#000000"/><text fill="#000000" font-family="sans-serif" font-size="14" lengthAdjust="spacing" textLength="32" x="1384.25" y="456.7969">Point</text><line style="stroke:#181818;stroke-width:0.5;" x1="1313.5" x2="1454.5" y1="467" y2="467"/><text fill="#000000" font-family="sans-serif" font-size="14" lengthAdjust="spacing" textLength="131" x="1318.5" y="486.1074">double x; // longitude</text><text fill="#000000" font-family="sans-serif" font-size="14" lengthAdjust="spacing" textLength="120" x="1318.5" y="504.7285">double y; // latitude</text><line style="stroke:#181818;stroke-width:0.5;" x1="1313.5" x2="1454.5" y1="512.2422" y2="512.2422"/></g><!--class CarParkService--><g id="elem_CarParkService"><rect codeLine="25" fill="#F1F1F1" height="85.2422" id="CarParkService" rx="2.5" ry="2.5" style="stroke:#181818;stroke-width:0.5;" width="686" x="617" y="251.5"/><ellipse cx="906.25" cy="267.5" fill="#ADD1B2" rx="11" ry="11" style="stroke:#181818;stroke-width:1.0;"/><path d="M909.0156,263.375 Q909.1719,263.1563 909.3594,263.0469 Q909.5469,262.9375 909.7656,262.9375 Q910.1406,262.9375 910.375,263.2031 Q910.6094,263.4531 910.6094,264.0625 L910.6094,265.5156 Q910.6094,266.125 910.375,266.3906 Q910.1406,266.6563 909.7656,266.6563 Q909.4219,266.6563 909.2188,266.4531 Q909.0156,266.2656 908.9063,265.75 Q908.8594,265.3906 908.6719,265.2031 Q908.3438,264.8281 907.7344,264.6094 Q907.125,264.3906 906.5,264.3906 Q905.7344,264.3906 905.0938,264.7188 Q904.4688,265.0469 903.9688,265.7969 Q903.4844,266.5469 903.4844,267.5781 L903.4844,268.6719 Q903.4844,269.9063 904.375,270.7344 Q905.2656,271.5469 906.8594,271.5469 Q907.7969,271.5469 908.4531,271.2969 Q908.8438,271.1406 909.2656,270.7031 Q909.5313,270.4375 909.6719,270.3594 Q909.8281,270.2813 910.0313,270.2813 Q910.3594,270.2813 910.6094,270.5469 Q910.875,270.7969 910.875,271.1406 Q910.875,271.4844 910.5313,271.8906 Q910.0313,272.4688 909.2344,272.7969 Q908.1563,273.25 906.8594,273.25 Q905.3438,273.25 904.1406,272.625 Q903.1563,272.125 902.4688,271.0625 Q901.7813,269.9844 901.7813,268.7031 L901.7813,267.5469 Q901.7813,266.2188 902.3906,265.0781 Q903.0156,263.9219 904.1094,263.3125 Q905.2031,262.6875 906.4375,262.6875 Q907.1719,262.6875 907.8125,262.8594 Q908.4688,263.0156 909.0156,263.375 Z " fill="#000000"/><text fill="#000000" font-family="sans-serif" font-size="14" lengthAdjust="spacing" textLength="99" x="926.75" y="273.2969">CarParkService</text><line style="stroke:#181818;stroke-width:0.5;" x1="618" x2="1302" y1="283.5" y2="283.5"/><line style="stroke:#181818;stroke-width:0.5;" x1="618" x2="1302" y1="291.5" y2="291.5"/><ellipse cx="628" cy="306.3105" fill="#84BE84" rx="3" ry="3" style="stroke:#038048;stroke-width:1.0;"/><text fill="#000000" font-family="sans-serif" font-size="14" lengthAdjust="spacing" textLength="482" x="637" y="310.6074">List&lt;NearestCarPark&gt; findNearestAvailableCarParks(Coordinate coordinate)</text><ellipse cx="628" cy="324.9316" fill="#84BE84" rx="3" ry="3" style="stroke:#038048;stroke-width:1.0;"/><text fill="#000000" font-family="sans-serif" font-size="14" lengthAdjust="spacing" textLength="660" x="637" y="329.2285">List&lt;NearestCarPark&gt; findNearestAvailableCarParks(Coordinate coordinate, NearestCarParkPage page)</text></g><!--class CarParkRepository--><g id="elem_CarParkRepository"><rect codeLine="30" fill="#F1F1F1" height="141.1055" id="CarParkRepository" rx="2.5" ry="2.5" style="stroke:#181818;stroke-width:0.5;" width="304" x="608" y="407"/><ellipse cx="695.25" cy="423" fill="#B4A7E5" rx="11" ry="11" style="stroke:#181818;stroke-width:1.0;"/><path d="M696.2031,419.6406 L696.2031,426.2969 L697.9219,426.2969 Q698.5313,426.2969 698.7969,426.5313 Q699.0625,426.7656 699.0625,427.1563 Q699.0625,427.5313 698.7969,427.7656 Q698.5313,428 697.9219,428 L692.7813,428 Q692.1719,428 691.9063,427.7656 Q691.6406,427.5313 691.6406,427.1406 Q691.6406,426.7656 691.9063,426.5313 Q692.1719,426.2969 692.7813,426.2969 L694.5,426.2969 L694.5,419.6406 L692.7813,419.6406 Q692.1719,419.6406 691.9063,419.4063 Q691.6406,419.1719 691.6406,418.7813 Q691.6406,418.4063 691.9063,418.1719 Q692.1719,417.9375 692.7813,417.9375 L697.9219,417.9375 Q698.5313,417.9375 698.7969,418.1719 Q699.0625,418.4063 699.0625,418.7813 Q699.0625,419.1719 698.7969,419.4063 Q698.5313,419.6406 697.9219,419.6406 L696.2031,419.6406 Z " fill="#000000"/><text fill="#000000" font-family="sans-serif" font-size="14" font-style="italic" lengthAdjust="spacing" textLength="121" x="715.75" y="428.7969">CarParkRepository</text><line style="stroke:#181818;stroke-width:0.5;" x1="609" x2="911" y1="439" y2="439"/><line style="stroke:#181818;stroke-width:0.5;" x1="609" x2="911" y1="447" y2="447"/><ellipse cx="619" cy="499.0527" fill="#84BE84" rx="3" ry="3" style="stroke:#038048;stroke-width:1.0;"/><text fill="#000000" font-family="sans-serif" font-size="14" lengthAdjust="spacing" textLength="259" x="628" y="466.1074">List&lt;CarPark&gt; findNearestCarParksInIds(</text><text fill="#000000" font-family="sans-serif" font-size="14" lengthAdjust="spacing" textLength="145" x="660" y="484.7285">Coordinate coordinate,</text><text fill="#000000" font-family="sans-serif" font-size="14" lengthAdjust="spacing" textLength="242" x="660" y="503.3496">Set&lt;String&gt; findNearestCarParksInIds,</text><text fill="#000000" font-family="sans-serif" font-size="14" lengthAdjust="spacing" textLength="170" x="660" y="521.9707">NearestCarParkPage page</text><text fill="#000000" font-family="sans-serif" font-size="14" lengthAdjust="spacing" textLength="5" x="628" y="540.5918">)</text></g><!--class CarParkQueryService--><g id="elem_CarParkQueryService"><rect codeLine="34" fill="#F1F1F1" height="66.6211" id="CarParkQueryService" rx="2.5" ry="2.5" style="stroke:#181818;stroke-width:0.5;" width="330" x="947" y="444"/><ellipse cx="1038.75" cy="460" fill="#B4A7E5" rx="11" ry="11" style="stroke:#181818;stroke-width:1.0;"/><path d="M1039.7031,456.6406 L1039.7031,463.2969 L1041.4219,463.2969 Q1042.0313,463.2969 1042.2969,463.5313 Q1042.5625,463.7656 1042.5625,464.1563 Q1042.5625,464.5313 1042.2969,464.7656 Q1042.0313,465 1041.4219,465 L1036.2813,465 Q1035.6719,465 1035.4063,464.7656 Q1035.1406,464.5313 1035.1406,464.1406 Q1035.1406,463.7656 1035.4063,463.5313 Q1035.6719,463.2969 1036.2813,463.2969 L1038,463.2969 L1038,456.6406 L1036.2813,456.6406 Q1035.6719,456.6406 1035.4063,456.4063 Q1035.1406,456.1719 1035.1406,455.7813 Q1035.1406,455.4063 1035.4063,455.1719 Q1035.6719,454.9375 1036.2813,454.9375 L1041.4219,454.9375 Q1042.0313,454.9375 1042.2969,455.1719 Q1042.5625,455.4063 1042.5625,455.7813 Q1042.5625,456.1719 1042.2969,456.4063 Q1042.0313,456.6406 1041.4219,456.6406 L1039.7031,456.6406 Z " fill="#000000"/><text fill="#000000" font-family="sans-serif" font-size="14" font-style="italic" lengthAdjust="spacing" textLength="138" x="1059.25" y="465.7969">CarParkQueryService</text><line style="stroke:#181818;stroke-width:0.5;" x1="948" x2="1276" y1="476" y2="476"/><line style="stroke:#181818;stroke-width:0.5;" x1="948" x2="1276" y1="484" y2="484"/><ellipse cx="958" cy="498.8105" fill="#84BE84" rx="3" ry="3" style="stroke:#038048;stroke-width:1.0;"/><text fill="#000000" font-family="sans-serif" font-size="14" lengthAdjust="spacing" textLength="304" x="967" y="503.1074">List&lt;AvailableCarPark&gt; findAvailableCarParks();</text></g><!--class SingaporeCarParkAvailabilityClient--><g id="elem_SingaporeCarParkAvailabilityClient"><rect codeLine="41" fill="#F1F1F1" height="66.6211" id="SingaporeCarParkAvailabilityClient" rx="2.5" ry="2.5" style="stroke:#181818;stroke-width:0.5;" width="312" x="964" y="679"/><ellipse cx="1006.45" cy="695" fill="#ADD1B2" rx="11" ry="11" style="stroke:#181818;stroke-width:1.0;"/><path d="M1009.2156,690.875 Q1009.3719,690.6563 1009.5594,690.5469 Q1009.7469,690.4375 1009.9656,690.4375 Q1010.3406,690.4375 1010.575,690.7031 Q1010.8094,690.9531 1010.8094,691.5625 L1010.8094,693.0156 Q1010.8094,693.625 1010.575,693.8906 Q1010.3406,694.1563 1009.9656,694.1563 Q1009.6219,694.1563 1009.4188,693.9531 Q1009.2156,693.7656 1009.1063,693.25 Q1009.0594,692.8906 1008.8719,692.7031 Q1008.5438,692.3281 1007.9344,692.1094 Q1007.325,691.8906 1006.7,691.8906 Q1005.9344,691.8906 1005.2938,692.2188 Q1004.6688,692.5469 1004.1688,693.2969 Q1003.6844,694.0469 1003.6844,695.0781 L1003.6844,696.1719 Q1003.6844,697.4063 1004.575,698.2344 Q1005.4656,699.0469 1007.0594,699.0469 Q1007.9969,699.0469 1008.6531,698.7969 Q1009.0438,698.6406 1009.4656,698.2031 Q1009.7313,697.9375 1009.8719,697.8594 Q1010.0281,697.7813 1010.2313,697.7813 Q1010.5594,697.7813 1010.8094,698.0469 Q1011.075,698.2969 1011.075,698.6406 Q1011.075,698.9844 1010.7313,699.3906 Q1010.2313,699.9688 1009.4344,700.2969 Q1008.3563,700.75 1007.0594,700.75 Q1005.5438,700.75 1004.3406,700.125 Q1003.3563,699.625 1002.6688,698.5625 Q1001.9813,697.4844 1001.9813,696.2031 L1001.9813,695.0469 Q1001.9813,693.7188 1002.5906,692.5781 Q1003.2156,691.4219 1004.3094,690.8125 Q1005.4031,690.1875 1006.6375,690.1875 Q1007.3719,690.1875 1008.0125,690.3594 Q1008.6688,690.5156 1009.2156,690.875 Z " fill="#000000"/><text fill="#000000" font-family="sans-serif" font-size="14" lengthAdjust="spacing" textLength="219" x="1026.55" y="700.7969">SingaporeCarParkAvailabilityClient</text><line style="stroke:#181818;stroke-width:0.5;" x1="965" x2="1275" y1="711" y2="711"/><line style="stroke:#181818;stroke-width:0.5;" x1="965" x2="1275" y1="719" y2="719"/><text fill="#000000" font-family="sans-serif" font-size="14" lengthAdjust="spacing" textLength="300" x="970" y="738.1074">List&lt;AvailableCarPark&gt; findAvailableCarParks()</text></g><!--class PostgisCarParkRepository--><g id="elem_PostgisCarParkRepository"><rect codeLine="47" fill="#F1F1F1" height="66.6211" id="PostgisCarParkRepository" rx="2.5" ry="2.5" style="stroke:#181818;stroke-width:0.5;" width="276" x="632" y="679"/><ellipse cx="682.75" cy="695" fill="#ADD1B2" rx="11" ry="11" style="stroke:#181818;stroke-width:1.0;"/><path d="M685.5156,690.875 Q685.6719,690.6563 685.8594,690.5469 Q686.0469,690.4375 686.2656,690.4375 Q686.6406,690.4375 686.875,690.7031 Q687.1094,690.9531 687.1094,691.5625 L687.1094,693.0156 Q687.1094,693.625 686.875,693.8906 Q686.6406,694.1563 686.2656,694.1563 Q685.9219,694.1563 685.7188,693.9531 Q685.5156,693.7656 685.4063,693.25 Q685.3594,692.8906 685.1719,692.7031 Q684.8438,692.3281 684.2344,692.1094 Q683.625,691.8906 683,691.8906 Q682.2344,691.8906 681.5938,692.2188 Q680.9688,692.5469 680.4688,693.2969 Q679.9844,694.0469 679.9844,695.0781 L679.9844,696.1719 Q679.9844,697.4063 680.875,698.2344 Q681.7656,699.0469 683.3594,699.0469 Q684.2969,699.0469 684.9531,698.7969 Q685.3438,698.6406 685.7656,698.2031 Q686.0313,697.9375 686.1719,697.8594 Q686.3281,697.7813 686.5313,697.7813 Q686.8594,697.7813 687.1094,698.0469 Q687.375,698.2969 687.375,698.6406 Q687.375,698.9844 687.0313,699.3906 Q686.5313,699.9688 685.7344,700.2969 Q684.6563,700.75 683.3594,700.75 Q681.8438,700.75 680.6406,700.125 Q679.6563,699.625 678.9688,698.5625 Q678.2813,697.4844 678.2813,696.2031 L678.2813,695.0469 Q678.2813,693.7188 678.8906,692.5781 Q679.5156,691.4219 680.6094,690.8125 Q681.7031,690.1875 682.9375,690.1875 Q683.6719,690.1875 684.3125,690.3594 Q684.9688,690.5156 685.5156,690.875 Z " fill="#000000"/><text fill="#000000" font-family="sans-serif" font-size="14" lengthAdjust="spacing" textLength="166" x="703.25" y="700.7969">PostgisCarParkRepository</text><line style="stroke:#181818;stroke-width:0.5;" x1="633" x2="907" y1="711" y2="711"/><line style="stroke:#181818;stroke-width:0.5;" x1="633" x2="907" y1="719" y2="719"/><text fill="#000000" font-family="sans-serif" font-size="14" lengthAdjust="spacing" textLength="264" x="638" y="738.1074">List&lt;CarPark&gt; findNearestCarParksInIds()</text></g><!--entity db--><g id="elem_db"><path d="M628,894.5 C628,884.5 692,884.5 692,884.5 C692,884.5 756,884.5 756,894.5 L756,922.1211 C756,932.1211 692,932.1211 692,932.1211 C692,932.1211 628,932.1211 628,922.1211 L628,894.5 " fill="#F1F1F1" style="stroke:#181818;stroke-width:0.5;"/><path d="M628,894.5 C628,904.5 692,904.5 692,904.5 C692,904.5 756,904.5 756,894.5 " fill="none" style="stroke:#181818;stroke-width:0.5;"/><text fill="#000000" font-family="sans-serif" font-size="14" lengthAdjust="spacing" textLength="108" x="638" y="923.6074">PostgisDataBase</text></g><!--link CarPark to Point--><g id="link_CarPark_Point"><path codeLine="12" d="M1388.31,346.04 C1387.38,374.14 1386.6493,396.5766 1385.7693,423.0066 " fill="none" id="CarPark-to-Point" style="stroke:#181818;stroke-width:1.0;"/><polygon fill="#181818" points="1385.37,435,1389.5674,429.1364,1385.7693,423.0066,1381.5719,428.8702,1385.37,435" style="stroke:#181818;stroke-width:1.0;"/></g><!--link CarParkController to CarParkService--><g id="link_CarParkController_CarParkService"><path codeLine="56" d="M967.26,156.18 C965.82,183.31 964.4071,210.0769 962.8471,239.4169 " fill="none" id="CarParkController-to-CarParkService" style="stroke:#181818;stroke-width:1.0;"/><polygon fill="#181818" points="962.21,251.4,966.5229,245.6208,962.8471,239.4169,958.5342,245.1961,962.21,251.4" style="stroke:#181818;stroke-width:1.0;"/></g><!--link CarParkService to CarParkQueryService--><g id="link_CarParkService_CarParkQueryService"><path codeLine="57" d="M994.87,336.64 C1022.13,369.19 1051.7858,404.5997 1076.9158,434.6097 " fill="none" id="CarParkService-to-CarParkQueryService" style="stroke:#181818;stroke-width:1.0;"/><polygon fill="#181818" points="1084.62,443.81,1083.8347,436.6418,1076.9158,434.6097,1077.7011,441.7779,1084.62,443.81" style="stroke:#181818;stroke-width:1.0;"/></g><!--link CarParkService to CarParkRepository--><g id="link_CarParkService_CarParkRepository"><path codeLine="58" d="M914.12,336.64 C891.17,357.47 871.6551,375.1644 845.5251,398.8844 " fill="none" id="CarParkService-to-CarParkRepository" style="stroke:#181818;stroke-width:1.0;"/><polygon fill="#181818" points="836.64,406.95,843.7711,405.8789,845.5251,398.8844,838.394,399.9555,836.64,406.95" style="stroke:#181818;stroke-width:1.0;"/></g><!--reverse link CarParkRepository to PostgisCarParkRepository--><g id="link_CarParkRepository_PostgisCarParkRepository"><path codeLine="59" d="M763.7621,566.0734 C765.6221,609.3934 767.15,645.1 768.6,678.85 " fill="none" id="CarParkRepository-backto-PostgisCarParkRepository" style="stroke:#181818;stroke-width:1.0;"/><polygon fill="none" points="762.99,548.09,757.7677,566.3308,769.7566,565.8161,762.99,548.09" style="stroke:#181818;stroke-width:1.0;"/></g><!--reverse link CarParkQueryService to SingaporeCarParkAvailabilityClient--><g id="link_CarParkQueryService_SingaporeCarParkAvailabilityClient"><path codeLine="60" d="M1113.7457,529.3795 C1115.2657,573.7895 1117.35,634.46 1118.88,678.78 " fill="none" id="CarParkQueryService-backto-SingaporeCarParkAvailabilityClient" style="stroke:#181818;stroke-width:1.0;"/><polygon fill="none" points="1113.13,511.39,1107.7492,529.5847,1119.7422,529.1742,1113.13,511.39" style="stroke:#181818;stroke-width:1.0;"/></g><!--link LiquibaseCarParkMigrator to LatLonCoordinate--><g id="link_LiquibaseCarParkMigrator_LatLonCoordinate"><path codeLine="61" d="M394.56,746.41 C357.12,782.19 306.3158,830.7496 268.9458,866.4596 " fill="none" id="LiquibaseCarParkMigrator-to-LatLonCoordinate" style="stroke:#181818;stroke-width:1.0;"/><polygon fill="#181818" points="260.27,874.75,267.3714,873.4967,268.9458,866.4596,261.8444,867.7129,260.27,874.75" style="stroke:#181818;stroke-width:1.0;"/></g><!--link LiquibaseCarParkMigrator to db--><g id="link_LiquibaseCarParkMigrator_db"><path codeLine="62" d="M473.32,746.19 C526.46,785.39 609.3416,846.5281 655.8916,880.8681 " fill="none" id="LiquibaseCarParkMigrator-to-db" style="stroke:#181818;stroke-width:1.0;"/><polygon fill="#181818" points="660.72,884.43,655.8521,875.8683,656.6964,881.4618,651.1029,882.3061,660.72,884.43" style="stroke:#181818;stroke-width:1.0;"/><text fill="#000000" font-family="sans-serif" font-size="13" lengthAdjust="spacing" textLength="79" x="607" y="841.0283">&#171;import data&#187;</text></g><!--link PostgisCarParkRepository to db--><g id="link_PostgisCarParkRepository_db"><path codeLine="63" d="M756.77,746.41 C740.99,785.65 717.269,844.6534 703.489,878.9134 " fill="none" id="PostgisCarParkRepository-to-db" style="stroke:#181818;stroke-width:1.0;"/><polygon fill="#181818" points="701.25,884.48,708.3195,877.6228,703.1158,879.8412,700.8974,874.6375,701.25,884.48" style="stroke:#181818;stroke-width:1.0;"/><text fill="#000000" font-family="sans-serif" font-size="13" lengthAdjust="spacing" textLength="75" x="725" y="841.0283">&#171;query data&#187;</text></g><!--link LiquibaseCarParkMigrator to cvsFile--><g id="link_LiquibaseCarParkMigrator_cvsFile"><path codeLine="64" d="M436.94,746.1 C443.83,772.99 454.64,811.95 467,845 C472.66,860.13 477.7495,871.3021 483.8195,883.5721 " fill="none" id="LiquibaseCarParkMigrator-to-cvsFile" style="stroke:#181818;stroke-width:1.0;"/><polygon fill="#181818" points="486.48,888.95,486.0746,879.1095,484.2629,884.4684,478.904,882.6568,486.48,888.95" style="stroke:#181818;stroke-width:1.0;"/><text fill="#000000" font-family="sans-serif" font-size="13" lengthAdjust="spacing" textLength="68" x="468" y="841.0283">&#171;read data&#187;</text></g><!--SRC=[jLLDZzCm4BtxLvYSMjWYxHwXgWHT8LLQK24IqagzkCbiDCAni_QaR87-ToQDsqtIf6KFv92cu_buxytO9bj8id9jYMmkKtIG45eZbDRsPuvFQ38X7fpAGKQf8YLpp9ogN2BvMqX-4gsybtVuME9QUPWhjrJkn-UzctN1gNhUo8t5LC8J92N1QBnVs8bc4aLtriojTIaQHT0AFbbCR5vmelZx_StrQFzkBFhDzkQwLU81DSTi_2V-5RiZAR_r1Fc1J32YMTlIf543G8qmi9jRGyvg3Kr-0IPwcdu1vS1Jy9vnRPEsRNvqQyir8z8i9fKfNCc3mPeiM1Q68ECQXSew_sBy1UDZvLsBPsYMpHMQ9eDNQ1BDUMMzzBOeSzrFBmQtmGHUpEt3Hg5MJE98ijMkm-Vu_wIzakqSIzPfBrPJgECdifhkGJ7BuFuD2kkHHtRRp_jSCnTcaVhHogne05cr50DDOtAyeuPpr9u3F5RctvXyBS5jGmzxgNG5hV6SoZn-VtR4R4adsoGi9Hh1KDHHiXwoc1LGXNM7Eg4kQgJjV1_N2QkUb-5kXU_wH0iu2t2UCuD9e1_iqdhAq5-QaIF4orCo3Av-CyZgeAtEKXc5yhTi-CY6I2elqxKGf-VGPFAwitr5PpStF9eJSiRjcQuu5M3wPp8Pb4Vq5AeZBdTV3Dub5RJkDN3EUyPQlPFJAUPSa6Gbwsmc1blw7F1OmJxudoqGBfGgo85AGynV]--></g></svg>