<?xml version="1.0" encoding="us-ascii" standalone="no"?><svg xmlns="http://www.w3.org/2000/svg" xmlns:xlink="http://www.w3.org/1999/xlink" contentStyleType="text/css" height="750px" preserveAspectRatio="none" style="width:1782px;height:750px;background:#FFFFFF;" version="1.1" viewBox="0 0 1782 750" width="1782px" zoomAndPan="magnify"><defs/><g><!--cluster domain--><g id="cluster_domain"><rect fill="none" height="302" rx="2.5" ry="2.5" style="stroke:#181818;stroke-width:1.0;" width="186" x="7" y="7"/><path d="M68,7 L68,18.6211 L58,28.6211 L7,28.6211 " fill="none" style="stroke:#181818;stroke-width:1.0;"/><text fill="#000000" font-family="sans-serif" font-size="14" font-weight="bold" lengthAdjust="spacing" textLength="51" x="10" y="23.1074">domain</text></g><!--cluster data transfer object--><g id="cluster_data transfer object"><rect fill="none" height="101" rx="2.5" ry="2.5" style="stroke:#181818;stroke-width:1.0;" width="415" x="217" y="35"/><path d="M365,35 L365,46.6211 L355,56.6211 L217,56.6211 " fill="none" style="stroke:#181818;stroke-width:1.0;"/><text fill="#000000" font-family="sans-serif" font-size="14" font-weight="bold" lengthAdjust="spacing" textLength="138" x="220" y="51.1074">data transfer object</text></g><!--cluster system interaction--><g id="cluster_system interaction"><rect fill="none" height="718.5" rx="2.5" ry="2.5" style="stroke:#181818;stroke-width:1.0;" width="1120" x="656" y="25.5"/><path d="M795,25.5 L795,37.1211 L785,47.1211 L656,47.1211 " fill="none" style="stroke:#181818;stroke-width:1.0;"/><text fill="#000000" font-family="sans-serif" font-size="14" font-weight="bold" lengthAdjust="spacing" textLength="129" x="659" y="41.6074">system interaction</text></g><!--class CarPark--><g id="elem_CarPark"><rect codeLine="1" fill="#F1F1F1" height="103.8633" id="CarPark" rx="2.5" ry="2.5" style="stroke:#181818;stroke-width:0.5;" width="153" x="23.5" y="44"/><ellipse cx="69.75" cy="60" fill="#ADD1B2" rx="11" ry="11" style="stroke:#181818;stroke-width:1.0;"/><path d="M72.5156,55.875 Q72.6719,55.6563 72.8594,55.5469 Q73.0469,55.4375 73.2656,55.4375 Q73.6406,55.4375 73.875,55.7031 Q74.1094,55.9531 74.1094,56.5625 L74.1094,58.0156 Q74.1094,58.625 73.875,58.8906 Q73.6406,59.1563 73.2656,59.1563 Q72.9219,59.1563 72.7188,58.9531 Q72.5156,58.7656 72.4063,58.25 Q72.3594,57.8906 72.1719,57.7031 Q71.8438,57.3281 71.2344,57.1094 Q70.625,56.8906 70,56.8906 Q69.2344,56.8906 68.5938,57.2188 Q67.9688,57.5469 67.4688,58.2969 Q66.9844,59.0469 66.9844,60.0781 L66.9844,61.1719 Q66.9844,62.4063 67.875,63.2344 Q68.7656,64.0469 70.3594,64.0469 Q71.2969,64.0469 71.9531,63.7969 Q72.3438,63.6406 72.7656,63.2031 Q73.0313,62.9375 73.1719,62.8594 Q73.3281,62.7813 73.5313,62.7813 Q73.8594,62.7813 74.1094,63.0469 Q74.375,63.2969 74.375,63.6406 Q74.375,63.9844 74.0313,64.3906 Q73.5313,64.9688 72.7344,65.2969 Q71.6563,65.75 70.3594,65.75 Q68.8438,65.75 67.6406,65.125 Q66.6563,64.625 65.9688,63.5625 Q65.2813,62.4844 65.2813,61.2031 L65.2813,60.0469 Q65.2813,58.7188 65.8906,57.5781 Q66.5156,56.4219 67.6094,55.8125 Q68.7031,55.1875 69.9375,55.1875 Q70.6719,55.1875 71.3125,55.3594 Q71.9688,55.5156 72.5156,55.875 Z " fill="#000000"/><text fill="#000000" font-family="sans-serif" font-size="14" lengthAdjust="spacing" textLength="52" x="90.25" y="65.7969">CarPark</text><line style="stroke:#181818;stroke-width:0.5;" x1="24.5" x2="175.5" y1="76" y2="76"/><text fill="#000000" font-family="sans-serif" font-size="14" lengthAdjust="spacing" textLength="52" x="29.5" y="95.1074">String id</text><text fill="#000000" font-family="sans-serif" font-size="14" lengthAdjust="spacing" textLength="92" x="29.5" y="113.7285">String address</text><text fill="#000000" font-family="sans-serif" font-size="14" lengthAdjust="spacing" textLength="141" x="29.5" y="132.3496">Coordinate coordinate</text><line style="stroke:#181818;stroke-width:0.5;" x1="24.5" x2="175.5" y1="139.8633" y2="139.8633"/></g><!--class Coordinate--><g id="elem_Coordinate"><rect codeLine="7" fill="#F1F1F1" height="85.2422" id="Coordinate" rx="2.5" ry="2.5" style="stroke:#181818;stroke-width:0.5;" width="117" x="41.5" y="208"/><ellipse cx="63.25" cy="224" fill="#ADD1B2" rx="11" ry="11" style="stroke:#181818;stroke-width:1.0;"/><path d="M66.0156,219.875 Q66.1719,219.6563 66.3594,219.5469 Q66.5469,219.4375 66.7656,219.4375 Q67.1406,219.4375 67.375,219.7031 Q67.6094,219.9531 67.6094,220.5625 L67.6094,222.0156 Q67.6094,222.625 67.375,222.8906 Q67.1406,223.1563 66.7656,223.1563 Q66.4219,223.1563 66.2188,222.9531 Q66.0156,222.7656 65.9063,222.25 Q65.8594,221.8906 65.6719,221.7031 Q65.3438,221.3281 64.7344,221.1094 Q64.125,220.8906 63.5,220.8906 Q62.7344,220.8906 62.0938,221.2188 Q61.4688,221.5469 60.9688,222.2969 Q60.4844,223.0469 60.4844,224.0781 L60.4844,225.1719 Q60.4844,226.4063 61.375,227.2344 Q62.2656,228.0469 63.8594,228.0469 Q64.7969,228.0469 65.4531,227.7969 Q65.8438,227.6406 66.2656,227.2031 Q66.5313,226.9375 66.6719,226.8594 Q66.8281,226.7813 67.0313,226.7813 Q67.3594,226.7813 67.6094,227.0469 Q67.875,227.2969 67.875,227.6406 Q67.875,227.9844 67.5313,228.3906 Q67.0313,228.9688 66.2344,229.2969 Q65.1563,229.75 63.8594,229.75 Q62.3438,229.75 61.1406,229.125 Q60.1563,228.625 59.4688,227.5625 Q58.7813,226.4844 58.7813,225.2031 L58.7813,224.0469 Q58.7813,222.7188 59.3906,221.5781 Q60.0156,220.4219 61.1094,219.8125 Q62.2031,219.1875 63.4375,219.1875 Q64.1719,219.1875 64.8125,219.3594 Q65.4688,219.5156 66.0156,219.875 Z " fill="#000000"/><text fill="#000000" font-family="sans-serif" font-size="14" lengthAdjust="spacing" textLength="70" x="78.75" y="229.7969">Coordinate</text><line style="stroke:#181818;stroke-width:0.5;" x1="42.5" x2="157.5" y1="240" y2="240"/><text fill="#000000" font-family="sans-serif" font-size="14" lengthAdjust="spacing" textLength="105" x="47.5" y="259.1074">double longitude</text><text fill="#000000" font-family="sans-serif" font-size="14" lengthAdjust="spacing" textLength="93" x="47.5" y="277.7285">double latitude</text><line style="stroke:#181818;stroke-width:0.5;" x1="42.5" x2="157.5" y1="285.2422" y2="285.2422"/></g><!--class CarParkAvailability--><g id="elem_CarParkAvailability"><rect codeLine="8" fill="#F1F1F1" height="48" id="CarParkAvailability" rx="2.5" ry="2.5" style="stroke:#181818;stroke-width:0.5;" width="150" x="466" y="72"/><ellipse cx="481" cy="88" fill="#ADD1B2" rx="11" ry="11" style="stroke:#181818;stroke-width:1.0;"/><path d="M483.7656,83.875 Q483.9219,83.6563 484.1094,83.5469 Q484.2969,83.4375 484.5156,83.4375 Q484.8906,83.4375 485.125,83.7031 Q485.3594,83.9531 485.3594,84.5625 L485.3594,86.0156 Q485.3594,86.625 485.125,86.8906 Q484.8906,87.1563 484.5156,87.1563 Q484.1719,87.1563 483.9688,86.9531 Q483.7656,86.7656 483.6563,86.25 Q483.6094,85.8906 483.4219,85.7031 Q483.0938,85.3281 482.4844,85.1094 Q481.875,84.8906 481.25,84.8906 Q480.4844,84.8906 479.8438,85.2188 Q479.2188,85.5469 478.7188,86.2969 Q478.2344,87.0469 478.2344,88.0781 L478.2344,89.1719 Q478.2344,90.4063 479.125,91.2344 Q480.0156,92.0469 481.6094,92.0469 Q482.5469,92.0469 483.2031,91.7969 Q483.5938,91.6406 484.0156,91.2031 Q484.2813,90.9375 484.4219,90.8594 Q484.5781,90.7813 484.7813,90.7813 Q485.1094,90.7813 485.3594,91.0469 Q485.625,91.2969 485.625,91.6406 Q485.625,91.9844 485.2813,92.3906 Q484.7813,92.9688 483.9844,93.2969 Q482.9063,93.75 481.6094,93.75 Q480.0938,93.75 478.8906,93.125 Q477.9063,92.625 477.2188,91.5625 Q476.5313,90.4844 476.5313,89.2031 L476.5313,88.0469 Q476.5313,86.7188 477.1406,85.5781 Q477.7656,84.4219 478.8594,83.8125 Q479.9531,83.1875 481.1875,83.1875 Q481.9219,83.1875 482.5625,83.3594 Q483.2188,83.5156 483.7656,83.875 Z " fill="#000000"/><text fill="#000000" font-family="sans-serif" font-size="14" lengthAdjust="spacing" textLength="118" x="495" y="93.7969">CarParkAvailability</text><line style="stroke:#181818;stroke-width:0.5;" x1="467" x2="615" y1="104" y2="104"/><line style="stroke:#181818;stroke-width:0.5;" x1="467" x2="615" y1="112" y2="112"/></g><!--class NearestCarParkResponse--><g id="elem_NearestCarParkResponse"><rect codeLine="9" fill="#F1F1F1" height="48" id="NearestCarParkResponse" rx="2.5" ry="2.5" style="stroke:#181818;stroke-width:0.5;" width="197" x="233.5" y="72"/><ellipse cx="248.5" cy="88" fill="#ADD1B2" rx="11" ry="11" style="stroke:#181818;stroke-width:1.0;"/><path d="M251.2656,83.875 Q251.4219,83.6563 251.6094,83.5469 Q251.7969,83.4375 252.0156,83.4375 Q252.3906,83.4375 252.625,83.7031 Q252.8594,83.9531 252.8594,84.5625 L252.8594,86.0156 Q252.8594,86.625 252.625,86.8906 Q252.3906,87.1563 252.0156,87.1563 Q251.6719,87.1563 251.4688,86.9531 Q251.2656,86.7656 251.1563,86.25 Q251.1094,85.8906 250.9219,85.7031 Q250.5938,85.3281 249.9844,85.1094 Q249.375,84.8906 248.75,84.8906 Q247.9844,84.8906 247.3438,85.2188 Q246.7188,85.5469 246.2188,86.2969 Q245.7344,87.0469 245.7344,88.0781 L245.7344,89.1719 Q245.7344,90.4063 246.625,91.2344 Q247.5156,92.0469 249.1094,92.0469 Q250.0469,92.0469 250.7031,91.7969 Q251.0938,91.6406 251.5156,91.2031 Q251.7813,90.9375 251.9219,90.8594 Q252.0781,90.7813 252.2813,90.7813 Q252.6094,90.7813 252.8594,91.0469 Q253.125,91.2969 253.125,91.6406 Q253.125,91.9844 252.7813,92.3906 Q252.2813,92.9688 251.4844,93.2969 Q250.4063,93.75 249.1094,93.75 Q247.5938,93.75 246.3906,93.125 Q245.4063,92.625 244.7188,91.5625 Q244.0313,90.4844 244.0313,89.2031 L244.0313,88.0469 Q244.0313,86.7188 244.6406,85.5781 Q245.2656,84.4219 246.3594,83.8125 Q247.4531,83.1875 248.6875,83.1875 Q249.4219,83.1875 250.0625,83.3594 Q250.7188,83.5156 251.2656,83.875 Z " fill="#000000"/><text fill="#000000" font-family="sans-serif" font-size="14" lengthAdjust="spacing" textLength="165" x="262.5" y="93.7969">NearestCarParkResponse</text><line style="stroke:#181818;stroke-width:0.5;" x1="234.5" x2="429.5" y1="104" y2="104"/><line style="stroke:#181818;stroke-width:0.5;" x1="234.5" x2="429.5" y1="112" y2="112"/></g><!--class CarParkController--><g id="elem_CarParkController"><rect codeLine="13" fill="#F1F1F1" height="66.6211" id="CarParkController" rx="2.5" ry="2.5" style="stroke:#181818;stroke-width:0.5;" width="650" x="1054" y="62.5"/><ellipse cx="1317.75" cy="78.5" fill="#ADD1B2" rx="11" ry="11" style="stroke:#181818;stroke-width:1.0;"/><path d="M1320.5156,74.375 Q1320.6719,74.1563 1320.8594,74.0469 Q1321.0469,73.9375 1321.2656,73.9375 Q1321.6406,73.9375 1321.875,74.2031 Q1322.1094,74.4531 1322.1094,75.0625 L1322.1094,76.5156 Q1322.1094,77.125 1321.875,77.3906 Q1321.6406,77.6563 1321.2656,77.6563 Q1320.9219,77.6563 1320.7188,77.4531 Q1320.5156,77.2656 1320.4063,76.75 Q1320.3594,76.3906 1320.1719,76.2031 Q1319.8438,75.8281 1319.2344,75.6094 Q1318.625,75.3906 1318,75.3906 Q1317.2344,75.3906 1316.5938,75.7188 Q1315.9688,76.0469 1315.4688,76.7969 Q1314.9844,77.5469 1314.9844,78.5781 L1314.9844,79.6719 Q1314.9844,80.9063 1315.875,81.7344 Q1316.7656,82.5469 1318.3594,82.5469 Q1319.2969,82.5469 1319.9531,82.2969 Q1320.3438,82.1406 1320.7656,81.7031 Q1321.0313,81.4375 1321.1719,81.3594 Q1321.3281,81.2813 1321.5313,81.2813 Q1321.8594,81.2813 1322.1094,81.5469 Q1322.375,81.7969 1322.375,82.1406 Q1322.375,82.4844 1322.0313,82.8906 Q1321.5313,83.4688 1320.7344,83.7969 Q1319.6563,84.25 1318.3594,84.25 Q1316.8438,84.25 1315.6406,83.625 Q1314.6563,83.125 1313.9688,82.0625 Q1313.2813,80.9844 1313.2813,79.7031 L1313.2813,78.5469 Q1313.2813,77.2188 1313.8906,76.0781 Q1314.5156,74.9219 1315.6094,74.3125 Q1316.7031,73.6875 1317.9375,73.6875 Q1318.6719,73.6875 1319.3125,73.8594 Q1319.9688,74.0156 1320.5156,74.375 Z " fill="#000000"/><text fill="#000000" font-family="sans-serif" font-size="14" lengthAdjust="spacing" textLength="114" x="1338.25" y="84.2969">CarParkController</text><line style="stroke:#181818;stroke-width:0.5;" x1="1055" x2="1703" y1="94.5" y2="94.5"/><line style="stroke:#181818;stroke-width:0.5;" x1="1055" x2="1703" y1="102.5" y2="102.5"/><ellipse cx="1065" cy="117.3105" fill="#84BE84" rx="3" ry="3" style="stroke:#038048;stroke-width:1.0;"/><text fill="#000000" font-family="sans-serif" font-size="14" lengthAdjust="spacing" textLength="624" x="1074" y="121.6074">List&lt;NearestCarParkResponse&gt; findNearestCarParks(Coordinate coordinate, Pageable  pageable)</text></g><!--class CarParkService--><g id="elem_CarParkService"><rect codeLine="17" fill="#F1F1F1" height="85.2422" id="CarParkService" rx="2.5" ry="2.5" style="stroke:#181818;stroke-width:0.5;" width="533" x="1112.5" y="208"/><ellipse cx="1325.25" cy="224" fill="#B4A7E5" rx="11" ry="11" style="stroke:#181818;stroke-width:1.0;"/><path d="M1326.2031,220.6406 L1326.2031,227.2969 L1327.9219,227.2969 Q1328.5313,227.2969 1328.7969,227.5313 Q1329.0625,227.7656 1329.0625,228.1563 Q1329.0625,228.5313 1328.7969,228.7656 Q1328.5313,229 1327.9219,229 L1322.7813,229 Q1322.1719,229 1321.9063,228.7656 Q1321.6406,228.5313 1321.6406,228.1406 Q1321.6406,227.7656 1321.9063,227.5313 Q1322.1719,227.2969 1322.7813,227.2969 L1324.5,227.2969 L1324.5,220.6406 L1322.7813,220.6406 Q1322.1719,220.6406 1321.9063,220.4063 Q1321.6406,220.1719 1321.6406,219.7813 Q1321.6406,219.4063 1321.9063,219.1719 Q1322.1719,218.9375 1322.7813,218.9375 L1327.9219,218.9375 Q1328.5313,218.9375 1328.7969,219.1719 Q1329.0625,219.4063 1329.0625,219.7813 Q1329.0625,220.1719 1328.7969,220.4063 Q1328.5313,220.6406 1327.9219,220.6406 L1326.2031,220.6406 Z " fill="#000000"/><text fill="#000000" font-family="sans-serif" font-size="14" font-style="italic" lengthAdjust="spacing" textLength="99" x="1345.75" y="229.7969">CarParkService</text><line style="stroke:#181818;stroke-width:0.5;" x1="1113.5" x2="1644.5" y1="240" y2="240"/><line style="stroke:#181818;stroke-width:0.5;" x1="1113.5" x2="1644.5" y1="248" y2="248"/><ellipse cx="1123.5" cy="262.8105" fill="#84BE84" rx="3" ry="3" style="stroke:#038048;stroke-width:1.0;"/><text fill="#000000" font-family="sans-serif" font-size="14" lengthAdjust="spacing" textLength="507" x="1132.5" y="267.1074">List&lt;CarPark&gt; findNearestCarParks(Coordinate coordinate, Pageable pageable)</text><ellipse cx="1123.5" cy="281.4316" fill="#84BE84" rx="3" ry="3" style="stroke:#038048;stroke-width:1.0;"/><text fill="#000000" font-family="sans-serif" font-size="14" lengthAdjust="spacing" textLength="305" x="1132.5" y="285.7285">List&lt;CarPark&gt; saveCarParks(CarPark carParks)</text></g><!--class DefaultCarParkService--><g id="elem_DefaultCarParkService"><rect codeLine="22" fill="#F1F1F1" height="85.2422" id="DefaultCarParkService" rx="2.5" ry="2.5" style="stroke:#181818;stroke-width:0.5;" width="533" x="1034.5" y="353"/><ellipse cx="1224.75" cy="369" fill="#ADD1B2" rx="11" ry="11" style="stroke:#181818;stroke-width:1.0;"/><path d="M1227.5156,364.875 Q1227.6719,364.6563 1227.8594,364.5469 Q1228.0469,364.4375 1228.2656,364.4375 Q1228.6406,364.4375 1228.875,364.7031 Q1229.1094,364.9531 1229.1094,365.5625 L1229.1094,367.0156 Q1229.1094,367.625 1228.875,367.8906 Q1228.6406,368.1563 1228.2656,368.1563 Q1227.9219,368.1563 1227.7188,367.9531 Q1227.5156,367.7656 1227.4063,367.25 Q1227.3594,366.8906 1227.1719,366.7031 Q1226.8438,366.3281 1226.2344,366.1094 Q1225.625,365.8906 1225,365.8906 Q1224.2344,365.8906 1223.5938,366.2188 Q1222.9688,366.5469 1222.4688,367.2969 Q1221.9844,368.0469 1221.9844,369.0781 L1221.9844,370.1719 Q1221.9844,371.4063 1222.875,372.2344 Q1223.7656,373.0469 1225.3594,373.0469 Q1226.2969,373.0469 1226.9531,372.7969 Q1227.3438,372.6406 1227.7656,372.2031 Q1228.0313,371.9375 1228.1719,371.8594 Q1228.3281,371.7813 1228.5313,371.7813 Q1228.8594,371.7813 1229.1094,372.0469 Q1229.375,372.2969 1229.375,372.6406 Q1229.375,372.9844 1229.0313,373.3906 Q1228.5313,373.9688 1227.7344,374.2969 Q1226.6563,374.75 1225.3594,374.75 Q1223.8438,374.75 1222.6406,374.125 Q1221.6563,373.625 1220.9688,372.5625 Q1220.2813,371.4844 1220.2813,370.2031 L1220.2813,369.0469 Q1220.2813,367.7188 1220.8906,366.5781 Q1221.5156,365.4219 1222.6094,364.8125 Q1223.7031,364.1875 1224.9375,364.1875 Q1225.6719,364.1875 1226.3125,364.3594 Q1226.9688,364.5156 1227.5156,364.875 Z " fill="#000000"/><text fill="#000000" font-family="sans-serif" font-size="14" lengthAdjust="spacing" textLength="144" x="1245.25" y="374.7969">DefaultCarParkService</text><line style="stroke:#181818;stroke-width:0.5;" x1="1035.5" x2="1566.5" y1="385" y2="385"/><line style="stroke:#181818;stroke-width:0.5;" x1="1035.5" x2="1566.5" y1="393" y2="393"/><ellipse cx="1045.5" cy="407.8105" fill="#84BE84" rx="3" ry="3" style="stroke:#038048;stroke-width:1.0;"/><text fill="#000000" font-family="sans-serif" font-size="14" lengthAdjust="spacing" textLength="507" x="1054.5" y="412.1074">List&lt;CarPark&gt; findNearestCarParks(Coordinate coordinate, Pageable pageable)</text><ellipse cx="1045.5" cy="426.4316" fill="#84BE84" rx="3" ry="3" style="stroke:#038048;stroke-width:1.0;"/><text fill="#000000" font-family="sans-serif" font-size="14" lengthAdjust="spacing" textLength="305" x="1054.5" y="430.7285">List&lt;CarPark&gt; saveCarParks(CarPark carParks)</text></g><!--class CarParkRepository--><g id="elem_CarParkRepository"><rect codeLine="27" fill="#F1F1F1" height="85.2422" id="CarParkRepository" rx="2.5" ry="2.5" style="stroke:#181818;stroke-width:0.5;" width="325" x="672.5" y="498"/><ellipse cx="770.25" cy="514" fill="#B4A7E5" rx="11" ry="11" style="stroke:#181818;stroke-width:1.0;"/><path d="M771.2031,510.6406 L771.2031,517.2969 L772.9219,517.2969 Q773.5313,517.2969 773.7969,517.5313 Q774.0625,517.7656 774.0625,518.1563 Q774.0625,518.5313 773.7969,518.7656 Q773.5313,519 772.9219,519 L767.7813,519 Q767.1719,519 766.9063,518.7656 Q766.6406,518.5313 766.6406,518.1406 Q766.6406,517.7656 766.9063,517.5313 Q767.1719,517.2969 767.7813,517.2969 L769.5,517.2969 L769.5,510.6406 L767.7813,510.6406 Q767.1719,510.6406 766.9063,510.4063 Q766.6406,510.1719 766.6406,509.7813 Q766.6406,509.4063 766.9063,509.1719 Q767.1719,508.9375 767.7813,508.9375 L772.9219,508.9375 Q773.5313,508.9375 773.7969,509.1719 Q774.0625,509.4063 774.0625,509.7813 Q774.0625,510.1719 773.7969,510.4063 Q773.5313,510.6406 772.9219,510.6406 L771.2031,510.6406 Z " fill="#000000"/><text fill="#000000" font-family="sans-serif" font-size="14" font-style="italic" lengthAdjust="spacing" textLength="121" x="790.75" y="519.7969">CarParkRepository</text><line style="stroke:#181818;stroke-width:0.5;" x1="673.5" x2="996.5" y1="530" y2="530"/><line style="stroke:#181818;stroke-width:0.5;" x1="673.5" x2="996.5" y1="538" y2="538"/><ellipse cx="683.5" cy="552.8105" fill="#84BE84" rx="3" ry="3" style="stroke:#038048;stroke-width:1.0;"/><text fill="#000000" font-family="sans-serif" font-size="14" lengthAdjust="spacing" textLength="258" x="692.5" y="557.1074">List&lt;CarPark&gt; findByIds(List&lt;String&gt; ids)</text><ellipse cx="683.5" cy="571.4316" fill="#84BE84" rx="3" ry="3" style="stroke:#038048;stroke-width:1.0;"/><text fill="#000000" font-family="sans-serif" font-size="14" lengthAdjust="spacing" textLength="299" x="692.5" y="575.7285">List&lt;CarPark&gt; saveAll(List&lt;CarPark&gt; carParks)</text></g><!--class SpringJpaCarParkRepository--><g id="elem_SpringJpaCarParkRepository"><rect codeLine="32" fill="#F1F1F1" height="85.2422" id="SpringJpaCarParkRepository" rx="2.5" ry="2.5" style="stroke:#181818;stroke-width:0.5;" width="325" x="672.5" y="643"/><ellipse cx="739.25" cy="659" fill="#ADD1B2" rx="11" ry="11" style="stroke:#181818;stroke-width:1.0;"/><path d="M742.0156,654.875 Q742.1719,654.6563 742.3594,654.5469 Q742.5469,654.4375 742.7656,654.4375 Q743.1406,654.4375 743.375,654.7031 Q743.6094,654.9531 743.6094,655.5625 L743.6094,657.0156 Q743.6094,657.625 743.375,657.8906 Q743.1406,658.1563 742.7656,658.1563 Q742.4219,658.1563 742.2188,657.9531 Q742.0156,657.7656 741.9063,657.25 Q741.8594,656.8906 741.6719,656.7031 Q741.3438,656.3281 740.7344,656.1094 Q740.125,655.8906 739.5,655.8906 Q738.7344,655.8906 738.0938,656.2188 Q737.4688,656.5469 736.9688,657.2969 Q736.4844,658.0469 736.4844,659.0781 L736.4844,660.1719 Q736.4844,661.4063 737.375,662.2344 Q738.2656,663.0469 739.8594,663.0469 Q740.7969,663.0469 741.4531,662.7969 Q741.8438,662.6406 742.2656,662.2031 Q742.5313,661.9375 742.6719,661.8594 Q742.8281,661.7813 743.0313,661.7813 Q743.3594,661.7813 743.6094,662.0469 Q743.875,662.2969 743.875,662.6406 Q743.875,662.9844 743.5313,663.3906 Q743.0313,663.9688 742.2344,664.2969 Q741.1563,664.75 739.8594,664.75 Q738.3438,664.75 737.1406,664.125 Q736.1563,663.625 735.4688,662.5625 Q734.7813,661.4844 734.7813,660.2031 L734.7813,659.0469 Q734.7813,657.7188 735.3906,656.5781 Q736.0156,655.4219 737.1094,654.8125 Q738.2031,654.1875 739.4375,654.1875 Q740.1719,654.1875 740.8125,654.3594 Q741.4688,654.5156 742.0156,654.875 Z " fill="#000000"/><text fill="#000000" font-family="sans-serif" font-size="14" lengthAdjust="spacing" textLength="183" x="759.75" y="664.7969">SpringJpaCarParkRepository</text><line style="stroke:#181818;stroke-width:0.5;" x1="673.5" x2="996.5" y1="675" y2="675"/><line style="stroke:#181818;stroke-width:0.5;" x1="673.5" x2="996.5" y1="683" y2="683"/><ellipse cx="683.5" cy="697.8105" fill="#84BE84" rx="3" ry="3" style="stroke:#038048;stroke-width:1.0;"/><text fill="#000000" font-family="sans-serif" font-size="14" lengthAdjust="spacing" textLength="258" x="692.5" y="702.1074">List&lt;CarPark&gt; findByIds(List&lt;String&gt; ids)</text><ellipse cx="683.5" cy="716.4316" fill="#84BE84" rx="3" ry="3" style="stroke:#038048;stroke-width:1.0;"/><text fill="#000000" font-family="sans-serif" font-size="14" lengthAdjust="spacing" textLength="299" x="692.5" y="720.7285">List&lt;CarPark&gt; saveAll(List&lt;CarPark&gt; carParks)</text></g><!--class DistanceComputer--><g id="elem_DistanceComputer"><rect codeLine="37" fill="#F1F1F1" height="66.6211" id="DistanceComputer" rx="2.5" ry="2.5" style="stroke:#181818;stroke-width:0.5;" width="380" x="1033" y="507"/><ellipse cx="1160.25" cy="523" fill="#B4A7E5" rx="11" ry="11" style="stroke:#181818;stroke-width:1.0;"/><path d="M1161.2031,519.6406 L1161.2031,526.2969 L1162.9219,526.2969 Q1163.5313,526.2969 1163.7969,526.5313 Q1164.0625,526.7656 1164.0625,527.1563 Q1164.0625,527.5313 1163.7969,527.7656 Q1163.5313,528 1162.9219,528 L1157.7813,528 Q1157.1719,528 1156.9063,527.7656 Q1156.6406,527.5313 1156.6406,527.1406 Q1156.6406,526.7656 1156.9063,526.5313 Q1157.1719,526.2969 1157.7813,526.2969 L1159.5,526.2969 L1159.5,519.6406 L1157.7813,519.6406 Q1157.1719,519.6406 1156.9063,519.4063 Q1156.6406,519.1719 1156.6406,518.7813 Q1156.6406,518.4063 1156.9063,518.1719 Q1157.1719,517.9375 1157.7813,517.9375 L1162.9219,517.9375 Q1163.5313,517.9375 1163.7969,518.1719 Q1164.0625,518.4063 1164.0625,518.7813 Q1164.0625,519.1719 1163.7969,519.4063 Q1163.5313,519.6406 1162.9219,519.6406 L1161.2031,519.6406 Z " fill="#000000"/><text fill="#000000" font-family="sans-serif" font-size="14" font-style="italic" lengthAdjust="spacing" textLength="117" x="1180.75" y="528.7969">DistanceComputer</text><line style="stroke:#181818;stroke-width:0.5;" x1="1034" x2="1412" y1="539" y2="539"/><line style="stroke:#181818;stroke-width:0.5;" x1="1034" x2="1412" y1="547" y2="547"/><ellipse cx="1044" cy="561.8105" fill="#84BE84" rx="3" ry="3" style="stroke:#038048;stroke-width:1.0;"/><text fill="#000000" font-family="sans-serif" font-size="14" lengthAdjust="spacing" textLength="354" x="1053" y="566.1074">double computeInMeter(Coordinate from, Coordinate to)</text></g><!--class LiquibaseCarParkMigrator--><g id="elem_LiquibaseCarParkMigrator"><rect codeLine="41" fill="#F1F1F1" height="66.6211" id="LiquibaseCarParkMigrator" rx="2.5" ry="2.5" style="stroke:#181818;stroke-width:0.5;" width="197" x="798.5" y="62.5"/><ellipse cx="813.5" cy="78.5" fill="#ADD1B2" rx="11" ry="11" style="stroke:#181818;stroke-width:1.0;"/><path d="M816.2656,74.375 Q816.4219,74.1563 816.6094,74.0469 Q816.7969,73.9375 817.0156,73.9375 Q817.3906,73.9375 817.625,74.2031 Q817.8594,74.4531 817.8594,75.0625 L817.8594,76.5156 Q817.8594,77.125 817.625,77.3906 Q817.3906,77.6563 817.0156,77.6563 Q816.6719,77.6563 816.4688,77.4531 Q816.2656,77.2656 816.1563,76.75 Q816.1094,76.3906 815.9219,76.2031 Q815.5938,75.8281 814.9844,75.6094 Q814.375,75.3906 813.75,75.3906 Q812.9844,75.3906 812.3438,75.7188 Q811.7188,76.0469 811.2188,76.7969 Q810.7344,77.5469 810.7344,78.5781 L810.7344,79.6719 Q810.7344,80.9063 811.625,81.7344 Q812.5156,82.5469 814.1094,82.5469 Q815.0469,82.5469 815.7031,82.2969 Q816.0938,82.1406 816.5156,81.7031 Q816.7813,81.4375 816.9219,81.3594 Q817.0781,81.2813 817.2813,81.2813 Q817.6094,81.2813 817.8594,81.5469 Q818.125,81.7969 818.125,82.1406 Q818.125,82.4844 817.7813,82.8906 Q817.2813,83.4688 816.4844,83.7969 Q815.4063,84.25 814.1094,84.25 Q812.5938,84.25 811.3906,83.625 Q810.4063,83.125 809.7188,82.0625 Q809.0313,80.9844 809.0313,79.7031 L809.0313,78.5469 Q809.0313,77.2188 809.6406,76.0781 Q810.2656,74.9219 811.3594,74.3125 Q812.4531,73.6875 813.6875,73.6875 Q814.4219,73.6875 815.0625,73.8594 Q815.7188,74.0156 816.2656,74.375 Z " fill="#000000"/><text fill="#000000" font-family="sans-serif" font-size="14" lengthAdjust="spacing" textLength="165" x="827.5" y="84.2969">LiquibaseCarParkMigrator</text><line style="stroke:#181818;stroke-width:0.5;" x1="799.5" x2="994.5" y1="94.5" y2="94.5"/><line style="stroke:#181818;stroke-width:0.5;" x1="799.5" x2="994.5" y1="102.5" y2="102.5"/><ellipse cx="809.5" cy="117.3105" fill="#84BE84" rx="3" ry="3" style="stroke:#038048;stroke-width:1.0;"/><text fill="#000000" font-family="sans-serif" font-size="14" lengthAdjust="spacing" textLength="89" x="818.5" y="121.6074">void execute()</text></g><!--class LatLonCoordinateConvert--><g id="elem_LatLonCoordinateConvert"><rect codeLine="45" fill="#F1F1F1" height="66.6211" id="LatLonCoordinateConvert" rx="2.5" ry="2.5" style="stroke:#181818;stroke-width:0.5;" width="405" x="672.5" y="217"/><ellipse cx="788.75" cy="233" fill="#ADD1B2" rx="11" ry="11" style="stroke:#181818;stroke-width:1.0;"/><path d="M791.5156,228.875 Q791.6719,228.6563 791.8594,228.5469 Q792.0469,228.4375 792.2656,228.4375 Q792.6406,228.4375 792.875,228.7031 Q793.1094,228.9531 793.1094,229.5625 L793.1094,231.0156 Q793.1094,231.625 792.875,231.8906 Q792.6406,232.1563 792.2656,232.1563 Q791.9219,232.1563 791.7188,231.9531 Q791.5156,231.7656 791.4063,231.25 Q791.3594,230.8906 791.1719,230.7031 Q790.8438,230.3281 790.2344,230.1094 Q789.625,229.8906 789,229.8906 Q788.2344,229.8906 787.5938,230.2188 Q786.9688,230.5469 786.4688,231.2969 Q785.9844,232.0469 785.9844,233.0781 L785.9844,234.1719 Q785.9844,235.4063 786.875,236.2344 Q787.7656,237.0469 789.3594,237.0469 Q790.2969,237.0469 790.9531,236.7969 Q791.3438,236.6406 791.7656,236.2031 Q792.0313,235.9375 792.1719,235.8594 Q792.3281,235.7813 792.5313,235.7813 Q792.8594,235.7813 793.1094,236.0469 Q793.375,236.2969 793.375,236.6406 Q793.375,236.9844 793.0313,237.3906 Q792.5313,237.9688 791.7344,238.2969 Q790.6563,238.75 789.3594,238.75 Q787.8438,238.75 786.6406,238.125 Q785.6563,237.625 784.9688,236.5625 Q784.2813,235.4844 784.2813,234.2031 L784.2813,233.0469 Q784.2813,231.7188 784.8906,230.5781 Q785.5156,229.4219 786.6094,228.8125 Q787.7031,228.1875 788.9375,228.1875 Q789.6719,228.1875 790.3125,228.3594 Q790.9688,228.5156 791.5156,228.875 Z " fill="#000000"/><text fill="#000000" font-family="sans-serif" font-size="14" lengthAdjust="spacing" textLength="164" x="809.25" y="238.7969">LatLonCoordinateConvert</text><line style="stroke:#181818;stroke-width:0.5;" x1="673.5" x2="1076.5" y1="249" y2="249"/><line style="stroke:#181818;stroke-width:0.5;" x1="673.5" x2="1076.5" y1="257" y2="257"/><ellipse cx="683.5" cy="271.8105" fill="#84BE84" rx="3" ry="3" style="stroke:#038048;stroke-width:1.0;"/><text fill="#000000" font-family="sans-serif" font-size="14" lengthAdjust="spacing" textLength="379" x="692.5" y="276.1074">LatLonCoordinate computeSVY21(SVY21Coordinate svy21)</text></g><!--class CarParkAvailabilityClient--><g id="elem_CarParkAvailabilityClient"><rect codeLine="49" fill="#F1F1F1" height="66.6211" id="CarParkAvailabilityClient" rx="2.5" ry="2.5" style="stroke:#181818;stroke-width:0.5;" width="311" x="1448.5" y="507"/><ellipse cx="1522.75" cy="523" fill="#B4A7E5" rx="11" ry="11" style="stroke:#181818;stroke-width:1.0;"/><path d="M1523.7031,519.6406 L1523.7031,526.2969 L1525.4219,526.2969 Q1526.0313,526.2969 1526.2969,526.5313 Q1526.5625,526.7656 1526.5625,527.1563 Q1526.5625,527.5313 1526.2969,527.7656 Q1526.0313,528 1525.4219,528 L1520.2813,528 Q1519.6719,528 1519.4063,527.7656 Q1519.1406,527.5313 1519.1406,527.1406 Q1519.1406,526.7656 1519.4063,526.5313 Q1519.6719,526.2969 1520.2813,526.2969 L1522,526.2969 L1522,519.6406 L1520.2813,519.6406 Q1519.6719,519.6406 1519.4063,519.4063 Q1519.1406,519.1719 1519.1406,518.7813 Q1519.1406,518.4063 1519.4063,518.1719 Q1519.6719,517.9375 1520.2813,517.9375 L1525.4219,517.9375 Q1526.0313,517.9375 1526.2969,518.1719 Q1526.5625,518.4063 1526.5625,518.7813 Q1526.5625,519.1719 1526.2969,519.4063 Q1526.0313,519.6406 1525.4219,519.6406 L1523.7031,519.6406 Z " fill="#000000"/><text fill="#000000" font-family="sans-serif" font-size="14" font-style="italic" lengthAdjust="spacing" textLength="154" x="1543.25" y="528.7969">CarParkAvailabilityClient</text><line style="stroke:#181818;stroke-width:0.5;" x1="1449.5" x2="1758.5" y1="539" y2="539"/><line style="stroke:#181818;stroke-width:0.5;" x1="1449.5" x2="1758.5" y1="547" y2="547"/><ellipse cx="1459.5" cy="561.8105" fill="#84BE84" rx="3" ry="3" style="stroke:#038048;stroke-width:1.0;"/><text fill="#000000" font-family="sans-serif" font-size="14" lengthAdjust="spacing" textLength="285" x="1468.5" y="566.1074">CarParkAvailability fetchAvailabilityCarPark();</text></g><!--class SingaporeCarParkAvailabilityClient--><g id="elem_SingaporeCarParkAvailabilityClient"><rect codeLine="53" fill="#F1F1F1" height="66.6211" id="SingaporeCarParkAvailabilityClient" rx="2.5" ry="2.5" style="stroke:#181818;stroke-width:0.5;" width="311" x="1448.5" y="652"/><ellipse cx="1490.5" cy="668" fill="#ADD1B2" rx="11" ry="11" style="stroke:#181818;stroke-width:1.0;"/><path d="M1493.2656,663.875 Q1493.4219,663.6563 1493.6094,663.5469 Q1493.7969,663.4375 1494.0156,663.4375 Q1494.3906,663.4375 1494.625,663.7031 Q1494.8594,663.9531 1494.8594,664.5625 L1494.8594,666.0156 Q1494.8594,666.625 1494.625,666.8906 Q1494.3906,667.1563 1494.0156,667.1563 Q1493.6719,667.1563 1493.4688,666.9531 Q1493.2656,666.7656 1493.1563,666.25 Q1493.1094,665.8906 1492.9219,665.7031 Q1492.5938,665.3281 1491.9844,665.1094 Q1491.375,664.8906 1490.75,664.8906 Q1489.9844,664.8906 1489.3438,665.2188 Q1488.7188,665.5469 1488.2188,666.2969 Q1487.7344,667.0469 1487.7344,668.0781 L1487.7344,669.1719 Q1487.7344,670.4063 1488.625,671.2344 Q1489.5156,672.0469 1491.1094,672.0469 Q1492.0469,672.0469 1492.7031,671.7969 Q1493.0938,671.6406 1493.5156,671.2031 Q1493.7813,670.9375 1493.9219,670.8594 Q1494.0781,670.7813 1494.2813,670.7813 Q1494.6094,670.7813 1494.8594,671.0469 Q1495.125,671.2969 1495.125,671.6406 Q1495.125,671.9844 1494.7813,672.3906 Q1494.2813,672.9688 1493.4844,673.2969 Q1492.4063,673.75 1491.1094,673.75 Q1489.5938,673.75 1488.3906,673.125 Q1487.4063,672.625 1486.7188,671.5625 Q1486.0313,670.4844 1486.0313,669.2031 L1486.0313,668.0469 Q1486.0313,666.7188 1486.6406,665.5781 Q1487.2656,664.4219 1488.3594,663.8125 Q1489.4531,663.1875 1490.6875,663.1875 Q1491.4219,663.1875 1492.0625,663.3594 Q1492.7188,663.5156 1493.2656,663.875 Z " fill="#000000"/><text fill="#000000" font-family="sans-serif" font-size="14" lengthAdjust="spacing" textLength="219" x="1510.5" y="673.7969">SingaporeCarParkAvailabilityClient</text><line style="stroke:#181818;stroke-width:0.5;" x1="1449.5" x2="1758.5" y1="684" y2="684"/><line style="stroke:#181818;stroke-width:0.5;" x1="1449.5" x2="1758.5" y1="692" y2="692"/><ellipse cx="1459.5" cy="706.8105" fill="#84BE84" rx="3" ry="3" style="stroke:#038048;stroke-width:1.0;"/><text fill="#000000" font-family="sans-serif" font-size="14" lengthAdjust="spacing" textLength="285" x="1468.5" y="711.1074">CarParkAvailability fetchAvailabilityCarPark();</text></g><!--class EquirectangularDistanceComputer--><g id="elem_EquirectangularDistanceComputer"><rect codeLine="57" fill="#F1F1F1" height="66.6211" id="EquirectangularDistanceComputer" rx="2.5" ry="2.5" style="stroke:#181818;stroke-width:0.5;" width="380" x="1033" y="652"/><ellipse cx="1110.25" cy="668" fill="#ADD1B2" rx="11" ry="11" style="stroke:#181818;stroke-width:1.0;"/><path d="M1113.0156,663.875 Q1113.1719,663.6563 1113.3594,663.5469 Q1113.5469,663.4375 1113.7656,663.4375 Q1114.1406,663.4375 1114.375,663.7031 Q1114.6094,663.9531 1114.6094,664.5625 L1114.6094,666.0156 Q1114.6094,666.625 1114.375,666.8906 Q1114.1406,667.1563 1113.7656,667.1563 Q1113.4219,667.1563 1113.2188,666.9531 Q1113.0156,666.7656 1112.9063,666.25 Q1112.8594,665.8906 1112.6719,665.7031 Q1112.3438,665.3281 1111.7344,665.1094 Q1111.125,664.8906 1110.5,664.8906 Q1109.7344,664.8906 1109.0938,665.2188 Q1108.4688,665.5469 1107.9688,666.2969 Q1107.4844,667.0469 1107.4844,668.0781 L1107.4844,669.1719 Q1107.4844,670.4063 1108.375,671.2344 Q1109.2656,672.0469 1110.8594,672.0469 Q1111.7969,672.0469 1112.4531,671.7969 Q1112.8438,671.6406 1113.2656,671.2031 Q1113.5313,670.9375 1113.6719,670.8594 Q1113.8281,670.7813 1114.0313,670.7813 Q1114.3594,670.7813 1114.6094,671.0469 Q1114.875,671.2969 1114.875,671.6406 Q1114.875,671.9844 1114.5313,672.3906 Q1114.0313,672.9688 1113.2344,673.2969 Q1112.1563,673.75 1110.8594,673.75 Q1109.3438,673.75 1108.1406,673.125 Q1107.1563,672.625 1106.4688,671.5625 Q1105.7813,670.4844 1105.7813,669.2031 L1105.7813,668.0469 Q1105.7813,666.7188 1106.3906,665.5781 Q1107.0156,664.4219 1108.1094,663.8125 Q1109.2031,663.1875 1110.4375,663.1875 Q1111.1719,663.1875 1111.8125,663.3594 Q1112.4688,663.5156 1113.0156,663.875 Z " fill="#000000"/><text fill="#000000" font-family="sans-serif" font-size="14" lengthAdjust="spacing" textLength="217" x="1130.75" y="673.7969">EquirectangularDistanceComputer</text><line style="stroke:#181818;stroke-width:0.5;" x1="1034" x2="1412" y1="684" y2="684"/><line style="stroke:#181818;stroke-width:0.5;" x1="1034" x2="1412" y1="692" y2="692"/><ellipse cx="1044" cy="706.8105" fill="#84BE84" rx="3" ry="3" style="stroke:#038048;stroke-width:1.0;"/><text fill="#000000" font-family="sans-serif" font-size="14" lengthAdjust="spacing" textLength="354" x="1053" y="711.1074">double computeInMeter(Coordinate from, Coordinate to)</text></g><!--link CarPark to Coordinate--><g id="link_CarPark_Coordinate"><path codeLine="12" d="M100,148.2 C100,167.59 100,177.4 100,195.8 " fill="none" id="CarPark-to-Coordinate" style="stroke:#181818;stroke-width:1.0;"/><polygon fill="#181818" points="100,207.8,104,201.8,100,195.8,96,201.8,100,207.8" style="stroke:#181818;stroke-width:1.0;"/></g><!--link CarParkController to CarParkService--><g id="link_CarParkController_CarParkService"><path codeLine="63" d="M1379,129.72 C1379,152.56 1379,171.24 1379,195.83 " fill="none" id="CarParkController-to-CarParkService" style="stroke:#181818;stroke-width:1.0;"/><polygon fill="#181818" points="1379,207.83,1383,201.83,1379,195.83,1375,201.83,1379,207.83" style="stroke:#181818;stroke-width:1.0;"/></g><!--reverse link CarParkService to DefaultCarParkService--><g id="link_CarParkService_DefaultCarParkService"><path codeLine="64" d="M1347.6101,309.0518 C1337.3601,327.8418 1333.9,334.18 1323.66,352.95 " fill="none" id="CarParkService-backto-DefaultCarParkService" style="stroke:#181818;stroke-width:1.0;"/><polygon fill="none" points="1356.23,293.25,1342.3428,306.1785,1352.8773,311.9251,1356.23,293.25" style="stroke:#181818;stroke-width:1.0;"/></g><!--link LiquibaseCarParkMigrator to CarParkService--><g id="link_LiquibaseCarParkMigrator_CarParkService"><path codeLine="65" d="M983.72,129.52 C1001.29,135.85 1019.68,142.28 1037,148 C1100.52,168.97 1159.7893,186.9524 1220.4193,204.6224 " fill="none" id="LiquibaseCarParkMigrator-to-CarParkService" style="stroke:#181818;stroke-width:1.0;"/><polygon fill="#181818" points="1231.94,207.98,1227.2988,202.461,1220.4193,204.6224,1225.0605,210.1414,1231.94,207.98" style="stroke:#181818;stroke-width:1.0;"/></g><!--link DefaultCarParkService to CarParkRepository--><g id="link_DefaultCarParkService_CarParkRepository"><path codeLine="66" d="M1165.59,438.05 C1104.18,456.9 1043.2119,475.6094 981.8219,494.4494 " fill="none" id="DefaultCarParkService-to-CarParkRepository" style="stroke:#181818;stroke-width:1.0;"/><polygon fill="#181818" points="970.35,497.97,977.2595,500.0337,981.8219,494.4494,974.9124,492.3857,970.35,497.97" style="stroke:#181818;stroke-width:1.0;"/></g><!--link DefaultCarParkService to CarParkAvailabilityClient--><g id="link_DefaultCarParkService_CarParkAvailabilityClient"><path codeLine="67" d="M1389.05,438.05 C1435.53,459.99 1480.8783,481.3875 1524.1583,501.8175 " fill="none" id="DefaultCarParkService-to-CarParkAvailabilityClient" style="stroke:#181818;stroke-width:1.0;"/><polygon fill="#181818" points="1535.01,506.94,1531.2916,500.7615,1524.1583,501.8175,1527.8766,507.996,1535.01,506.94" style="stroke:#181818;stroke-width:1.0;"/></g><!--link DefaultCarParkService to DistanceComputer--><g id="link_DefaultCarParkService_DistanceComputer"><path codeLine="68" d="M1278.23,438.25 C1266.36,460.01 1257.797,475.7156 1246.717,496.0256 " fill="none" id="DefaultCarParkService-to-DistanceComputer" style="stroke:#181818;stroke-width:1.0;"/><polygon fill="#181818" points="1240.97,506.56,1247.3549,503.2085,1246.717,496.0256,1240.332,499.3772,1240.97,506.56" style="stroke:#181818;stroke-width:1.0;"/></g><!--reverse link DistanceComputer to EquirectangularDistanceComputer--><g id="link_DistanceComputer_EquirectangularDistanceComputer"><path codeLine="69" d="M1223,592.31 C1223,615.56 1223,628.63 1223,651.85 " fill="none" id="DistanceComputer-backto-EquirectangularDistanceComputer" style="stroke:#181818;stroke-width:1.0;"/><polygon fill="none" points="1223,574.31,1217,592.31,1229,592.31,1223,574.31" style="stroke:#181818;stroke-width:1.0;"/></g><!--reverse link CarParkRepository to SpringJpaCarParkRepository--><g id="link_CarParkRepository_SpringJpaCarParkRepository"><path codeLine="70" d="M835,601.25 C835,620.04 835,624.18 835,642.95 " fill="none" id="CarParkRepository-backto-SpringJpaCarParkRepository" style="stroke:#181818;stroke-width:1.0;"/><polygon fill="none" points="835,583.25,829,601.25,841,601.25,835,583.25" style="stroke:#181818;stroke-width:1.0;"/></g><!--reverse link CarParkAvailabilityClient to SingaporeCarParkAvailabilityClient--><g id="link_CarParkAvailabilityClient_SingaporeCarParkAvailabilityClient"><path codeLine="71" d="M1604,592.31 C1604,615.56 1604,628.63 1604,651.85 " fill="none" id="CarParkAvailabilityClient-backto-SingaporeCarParkAvailabilityClient" style="stroke:#181818;stroke-width:1.0;"/><polygon fill="none" points="1604,574.31,1598,592.31,1610,592.31,1604,574.31" style="stroke:#181818;stroke-width:1.0;"/></g><!--link LiquibaseCarParkMigrator to LatLonCoordinateConvert--><g id="link_LiquibaseCarParkMigrator_LatLonCoordinateConvert"><path codeLine="72" d="M892.28,129.72 C888.57,155.45 885.1332,179.2429 881.4232,204.9629 " fill="none" id="LiquibaseCarParkMigrator-to-LatLonCoordinateConvert" style="stroke:#181818;stroke-width:1.0;"/><polygon fill="#181818" points="879.71,216.84,884.5256,211.4725,881.4232,204.9629,876.6076,210.3304,879.71,216.84" style="stroke:#181818;stroke-width:1.0;"/></g><!--SRC=[rLHDRzD04BtxLmmzkT0WjLUgIiNbK9IYgf6GE8xjSLXOxvZTiKK4_7VMTeA_4mc113x4c_bwpszcHxW0OOXPX7D8bQL459iWo2pc16SfvwZC6NmBm3_Fb4bqcHAqvfT5cUlWHnUCWY0MZSl80iUVVB53QgBHEOZGFgBzV5kXqXWhhMJNyxuZjEHa7_H4hc3Zg0VWTaue1sM4B3P4Pyj7RCIorfv4wwsV5x1MJgxdCMuWKoOT-bmOCTjK6HI2vDVn0XvnInXh0YZsf_C6nVEiNmsx31CwqDcGhPJ_E-6oz_yU-11xhgh3YhfoxG6IlM50kLNlZZ8ijVmth2T2Fr71JWdRtGdMhtVtgGiR-qQiCjiRKAaxpkbMwt1eFIBbfgYhlYtm7sBMoNNdWz4a575Ub3Aw9IcNTQEIrdTl7iX7zFkQMSule6SGdb5WhRwKAaPtwEM3sbhq0WomAbOfq5TAF58uLmHbpQQ3yXUx8Yj33KSn1-QRzn-kBiFcj-TqrUxgylWKzPTJf1MP8TvC56GaoST1NXiKdh-QcGtVLIpOqZBUdmLyupjHxtKqsrAZ_MlTzw31T0ElLiz7Yp0ORPZhxwlL_F895gTefkhy-ke5TfVmTEoqAKTonee64ucRJppHXs2wAvgqvLqIB4zGctboqeuBl73zVW80]--></g></svg>